<?xml version="1.0" encoding="utf-8"?>
<!-- Generator: Adobe Illustrator 15.1.0, SVG Export Plug-In . SVG Version: 6.00 Build 0)  -->
<!DOCTYPE svg PUBLIC "-//W3C//DTD SVG 1.1//EN" "http://www.w3.org/Graphics/SVG/1.1/DTD/svg11.dtd">
<svg version="1.1" id="Layer_1" xmlns="http://www.w3.org/2000/svg" xmlns:xlink="http://www.w3.org/1999/xlink" x="0px" y="0px"
	 width="231.586px" height="384.683px" viewBox="0 0 231.586 384.683" enable-background="new 0 0 231.586 384.683"
	 xml:space="preserve">
<title>58 all</title>
<path d="M220.113,11.474c-15.27-15.286-40.039-15.3-55.324-0.031c-0.011,0.01-0.021,0.021-0.031,0.031L11.473,164.824
	c-15.285,15.269-15.299,40.039-0.03,55.325c0.01,0.01,0.021,0.021,0.03,0.03l153.351,153.285
	c15.409,15.145,40.178,14.93,55.322-0.479c14.972-15.233,14.957-39.659-0.032-54.875L94.473,192.469L220.113,66.828
	c15.285-15.269,15.299-40.038,0.03-55.324C220.134,11.494,220.123,11.484,220.113,11.474z"/>
</svg>
