<?xml version="1.0" encoding="utf-8"?>
<!-- Generator: Adobe Illustrator 15.1.0, SVG Export Plug-In . SVG Version: 6.00 Build 0)  -->
<!DOCTYPE svg PUBLIC "-//W3C//DTD SVG 1.1//EN" "http://www.w3.org/Graphics/SVG/1.1/DTD/svg11.dtd">
<svg version="1.1" id="Layer_1" xmlns="http://www.w3.org/2000/svg" xmlns:xlink="http://www.w3.org/1999/xlink" x="0px" y="0px"
	 width="28.549px" height="32.984px" viewBox="0 0 28.549 32.984" enable-background="new 0 0 28.549 32.984" xml:space="preserve">
<polygon points="18.034,0 19.618,0 19.913,3.74 18.329,3.74 "/>
<polygon points="8.93,0 10.515,0 10.219,3.74 8.635,3.74 "/>
<polygon points="7.259,21.178 8.843,21.178 8.736,22.531 7.152,22.531 "/>
<polygon points="7.911,32.984 6.327,32.984 6.932,25.314 8.516,25.314 "/>
<polygon points="22.222,32.984 20.639,32.984 20.033,25.314 21.616,25.314 "/>
<polygon points="23.384,23.252 23.384,24.594 22.282,24.594 19.254,24.594 9.295,24.594 6.267,24.594 5.165,24.594 5.165,23.252 
	6.373,23.252 9.401,23.252 19.147,23.252 22.176,23.252 "/>
<polygon points="21.396,22.531 19.813,22.531 19.706,21.178 21.29,21.178 "/>
<path d="M20.692,4.46h-3.028h-6.779H7.856H0v15.998h6.593h3.028h9.305h3.028h6.594V4.46H20.692z M23.693,16.806
	c-1.135,0.475-2.471,0.939-3.652,0.375c-0.549-0.262-0.786-0.55-0.851-0.873c-0.805,0.322-1.609,0.611-2.516,0.51
	c-0.43-0.048-1.414-0.486-1.146-1.082c0.617-1.373,2.035-2.272,2.959-3.442c-2.658,0.96-5.133,2.451-8.032,2.572
	c-0.424,0.018-1.426-0.538-1.146-1.082c0.763-1.483,1.971-2.582,3.119-3.74c-2.727,0.774-5.441,1.494-8.328,1.017
	c-0.291-0.048-1.301-0.627-0.95-1.058c1.762-2.158,4.412-2.952,6.681-4.428c0.553-0.36,1.985,0.703,1.363,1.107
	C9.387,7.857,7.259,8.582,5.624,9.98c2.951-0.064,5.828-1.275,8.674-1.961c0.402-0.097,1.718,0.509,1.32,1.066
	c-1.112,1.549-2.652,2.719-3.826,4.194c2.638-0.701,5.047-2.29,7.75-2.821c0.427-0.084,1.486,0.359,1.359,0.935
	c-0.354,1.595-1.665,2.55-2.725,3.691c0.551-0.229,1.1-0.477,1.67-0.602c0.515-0.113,1.551,0.44,1.32,1.066
	c-0.061,0.186-0.138,0.364-0.233,0.534c-0.009,0.02-0.016,0.034-0.023,0.052c0.486-0.11,0.96-0.243,1.421-0.436
	C22.941,15.442,24.316,16.545,23.693,16.806z"/>
</svg>
