<?xml version="1.0" encoding="utf-8"?>
<!-- Generator: Adobe Illustrator 15.1.0, SVG Export Plug-In . SVG Version: 6.00 Build 0)  -->
<!DOCTYPE svg PUBLIC "-//W3C//DTD SVG 1.1//EN" "http://www.w3.org/Graphics/SVG/1.1/DTD/svg11.dtd">
<svg version="1.1" id="Layer_1" xmlns="http://www.w3.org/2000/svg" xmlns:xlink="http://www.w3.org/1999/xlink" x="0px" y="0px"
	 width="250px" height="140.961px" viewBox="0 2.63 250 140.961" enable-background="new 0 2.63 250 140.961" xml:space="preserve">
<g>
	<g>
		<title>deliverary</title>
		<path fill="#FF4958" d="M185.502,127.211L185.502,127.211c0-9.046,7.334-16.38,16.38-16.38c9.048,0,16.38,7.334,16.38,16.38
			s-7.332,16.38-16.38,16.38C192.846,143.568,185.523,136.248,185.502,127.211z"/>
		<path fill="#FF4958" d="M38.284,127.211c0-9.046,7.334-16.38,16.381-16.38c9.046,0,16.379,7.334,16.379,16.38
			s-7.333,16.38-16.379,16.38C45.627,143.568,38.307,136.248,38.284,127.211z"/>
		<path fill="#FF4958" d="M1.182,91.343V11.278C1.204,6.512,5.063,2.652,9.83,2.63h150.365c4.775,0,8.647,3.872,8.647,8.648v80.064
			l0,0c-0.022,4.777-3.911,8.631-8.688,8.608H9.75C5.012,99.93,1.182,96.082,1.182,91.343z"/>
		<path fill="#FF4958" d="M173.506,102.582"/>
		<path fill="#FF4958" d="M71.243,123.744c-1.599-7.735-8.312-13.354-16.207-13.564c-9.395-0.254-17.216,7.158-17.469,16.553v1.914
			H20.392l0,0c-4.887,0-8.848-3.961-8.848-8.849v-8.606c0-4.711,3.817-8.529,8.528-8.529h151.442V42.204
			c0-6.009,4.87-10.88,10.881-10.88h41.726c4.099,0.016,7.815,2.411,9.524,6.138l13.629,29.85c1.043,2.276,1.586,4.75,1.595,7.254
			v43.042c0.001,0.054,0.002,0.106,0.002,0.16c-0.001,6.008-4.872,10.879-10.882,10.879h-12.553
			c-3.422-0.026-6.377-2.402-7.135-5.738c-1.529-6.047-6.251-10.77-12.298-12.299c-9.09-2.299-18.321,3.207-20.621,12.299
			c-0.758,3.336-3.713,5.712-7.134,5.738H77.182C74.301,128.596,71.838,126.562,71.243,123.744z"/>
	</g>
	<path fill="#FF6974" d="M62.553,88.309c-1.868-1.291-3.122-3.295-3.467-5.539c-1.178-4.772-2.916-9.389-5.181-13.75
		c-1.036-2.271-1.953-4.344-2.63-6.018c-0.875-2.116-1.872-4.179-2.989-6.178c-1.709-3.062-3.162-6.262-4.344-9.563
		c-1.584-5.151-0.24-10.755,3.507-14.627l0.877-1.235c2.272-2.649,5.085-4.783,8.249-6.257l0.957-0.518
		c1.397-1.783,2.452-3.811,3.108-5.979l0.358-0.957c1.235-3.068,6.257-4.941,8.729-5.499c2.219-0.367,4.492,0.147,6.335,1.435
		c0.665,0.411,1.374,0.745,2.113,0.996c1.543,0.238,3.102,0.37,4.662,0.398c3.105-0.088,6.204,0.343,9.166,1.275
		c3.155,1.699,5.526,4.557,6.616,7.971c2.212,3.29,5.427,5.778,9.166,7.094c5.799,2.852,9.04,9.17,7.971,15.543
		c-0.279,1.913-0.478,3.746-0.717,5.5c-0.45,4.437-1.236,8.833-2.352,13.151c-1.314,4.862-8.927,9.087-17.256,13.072
		c-1.714,0.836-3.149,1.554-3.986,2.07c-4.702,2.91-16.26,0.798-20.245-0.598c-3.639-1.771-6.183-5.209-6.814-9.206
		c-0.279-0.916-0.599-1.793-0.917-2.591c-1.23-2.029-2.942-3.727-4.981-4.941c-1.129-0.796-2.207-1.661-3.228-2.59
		c-0.231-0.223-0.445-0.462-0.638-0.718l0.597,1.475c0.638,1.635,1.555,3.627,2.552,5.818c2.478,4.748,4.326,9.8,5.499,15.024
		c0.276,1.144,0.973,2.14,1.953,2.79c2.311,1.747,5.079,2.786,7.971,2.989c1.551-0.397,3.059-0.943,4.503-1.636
		c2.335-1.05,4.763-1.877,7.254-2.471c2.818-0.253,5.657-0.146,8.448,0.319c3.826,0.397,10.92,1.156,12.195-0.239
		c1.055-1.295,1.693-2.879,1.833-4.543c0.302-1.97,1.037-3.849,2.152-5.5c1.617-1.877,3.419-3.586,5.38-5.101
		c2.695-1.967,5.005-4.411,6.815-7.214l0.279-0.757c1.487-2.618,1.818-5.737,0.916-8.608c-0.463-1.063-1.109-2.034-1.913-2.869
		c-1.836-1.77-2.848-4.227-2.79-6.775c0-1.116,0-2.511,0-3.985c0.16-2.711,0.558-9.924-0.598-10.88l-3.228-1.355
		c-3.586-1.401-7.085-3.012-10.481-4.821c-2.79-1.715-9.326-5.103-9.326-5.103l1.833-3.546c0.279,0.119,6.656,3.428,9.564,5.221
		c3.236,1.694,6.562,3.212,9.964,4.543l3.309,1.395c3.706,1.635,3.348,8.29,2.988,14.745c0,1.436,0,2.711,0,3.707
		c0.007,1.531,0.675,2.984,1.833,3.985c1.106,1.163,1.996,2.512,2.631,3.985c1.282,3.794,0.937,7.949-0.957,11.478l-0.278,0.718
		c-1.969,3.515-4.688,6.55-7.971,8.887c-1.723,1.404-3.31,2.966-4.743,4.664c-0.78,1.202-1.283,2.563-1.475,3.984
		c-0.314,2.387-1.342,4.623-2.948,6.416c-2.671,2.87-9.206,2.152-15.543,1.475c-2.371-0.371-4.777-0.492-7.174-0.357
		c-2.23,0.57-4.406,1.345-6.496,2.312c-1.74,0.847-3.572,1.488-5.459,1.913h-0.719C69.217,91.896,65.59,90.566,62.553,88.309z
		 M70.922,16.214c-2.239,0.374-4.305,1.448-5.898,3.068l-0.358,0.917c-0.776,3.077-2.456,5.853-4.821,7.971l-0.997,0.558
		c-2.574,1.22-4.898,2.909-6.854,4.981l-1.037,1.395c-2.9,2.813-4.018,6.994-2.908,10.88c1.082,3.105,2.415,6.117,3.985,9.007
		l0.877,1.674c-0.976-3.417-1.247-6.996-0.798-10.521c0.262-1.907,1.357-3.601,2.989-4.622c1.734-1.403,3.348-2.95,4.823-4.623
		c2.347-2.675,4.306-5.666,5.817-8.888c0.757-1.812,1.777-3.506,3.029-5.021c2.63-2.789,7.014-1.235,10.601,0
		c1.187,0.471,2.414,0.83,3.666,1.076c3.029,0.279,5.898,3.627,9.605,8.25c0.957,1.195,1.833,2.312,2.551,3.068
		c1.582,1.406,3.354,2.587,5.26,3.507c2.133,1.107,4.137,2.443,5.979,3.985c4.104,3.706,3.308,10.88,0.359,15.662
		c-2.95,4.783-26.304,15.822-34.155,11.957c-7.851-3.867-8.448-24.231-8.448-30.369c-0.011-0.893,0.125-1.78,0.398-2.63
		c-0.519,0.638-1.076,1.355-1.714,2.032c-1.61,1.83-3.37,3.522-5.261,5.062c-1.354,1.115-1.594,1.156-1.594,2.191
		c-0.63,3.829,0.045,7.759,1.912,11.16c0.909,0.815,1.867,1.573,2.869,2.271c2.643,1.6,4.814,3.868,6.298,6.576
		c0.358,0.877,0.717,1.913,1.036,2.949c0.917,2.67,1.874,5.818,4.304,6.656c4.583,1.553,14.148,2.629,16.818,0.955
		c0.917-0.558,2.471-1.354,4.345-2.271c4.98-2.631,14.227-7.055,15.224-10.602c1.065-4.135,1.812-8.345,2.231-12.594
		c0.239-1.595,0.479-3.627,0.757-5.579c0.699-4.367-1.258-8.733-4.981-11.119c-4.88-1.633-9.038-4.918-11.757-9.286
		c-1.595-3.547-2.75-5.021-4.703-5.938c-2.505-0.601-5.074-0.895-7.651-0.877c-1.832-0.016-3.658-0.189-5.46-0.519
		c-1.078-0.33-2.109-0.799-3.068-1.395c-0.89-0.617-1.915-1.014-2.989-1.156L70.922,16.214z M72.636,25.579
		c-0.351-0.054-0.707,0.032-0.996,0.238c-0.974,1.214-1.778,2.555-2.392,3.986c-0.818,1.679-1.724,3.314-2.71,4.902
		c2.447-1.578,5.299-2.409,8.21-2.392h1.674c3.031,0.107,5.897,1.412,7.972,3.626c1.368,1.279,2.962,2.293,4.702,2.989
		c4.504,1.437,12.793,6.496,12.793,11.956c0.199,6.456-20.843,14.427-21.043,14.427c-4.583,1.235-6.735-5.261-8.568-10.999
		L71.68,52.52c-0.124-0.245-0.233-0.496-0.328-0.754c-1.396-3.778,0.536-7.973,4.313-9.368l0.518-0.319
		c3.274-1.3,6.974-0.929,9.924,0.996C88.169,44,89.538,46,89.654,48.256c-0.337,3.306-2.855,5.972-6.137,6.497l-0.877-3.985
		c0.039,0,2.989-0.758,2.989-2.551c0-0.239-0.439-0.917-1.595-1.595c-1.729-1.13-3.847-1.504-5.858-1.035l-0.519,0.318
		c-2.59,1.475-3.347,2.032-2.231,5.459l0.598,1.834c0.837,2.59,2.551,8.011,3.746,8.369c4.225-1.116,17.456-8.011,18.054-10.441
		c-0.08-2.551-5.897-6.775-9.884-7.971c-2.274-0.828-4.361-2.103-6.138-3.746c-1.833-1.475-3.586-2.75-4.98-2.75h-1.834
		c-5.022,0.278-6.814,0.877-6.814,3.587c0,11.796,2.231,24.749,6.217,26.781c5.341,2.67,26.94-7.054,29.014-10.362
		c2.071-3.307,2.75-8.448,0.358-10.561c-1.631-1.322-3.394-2.471-5.261-3.428c-2.261-1.139-4.342-2.602-6.178-4.344
		c-0.797-0.837-1.753-2.032-2.789-3.308c-1.833-2.312-5.301-6.815-6.935-6.815c-1.556-0.265-3.078-0.692-4.543-1.274
		c-1.736-0.705-3.56-1.175-5.421-1.396L72.636,25.579L72.636,25.579z"/>
	<path fill="#FF6974" d="M196.252,69.486V47.248c0-2.333,1.893-4.224,4.225-4.224h23.155c1.744-0.03,3.327,1.015,3.985,2.63
		l9.126,22.238c0.216,0.529,0.321,1.097,0.312,1.668c-0.041,2.333-1.965,4.19-4.298,4.15h-32.319
		C198.12,73.689,196.252,71.805,196.252,69.486z"/>
	<path fill="#FF6974" d="M200.197,47.209v22.237c0,0.133,0.107,0.239,0.24,0.239h32.319l0.239-0.318l-9.405-22.397L200.197,47.209z"
		/>
</g>
</svg>
