<?xml version="1.0" encoding="utf-8"?>
<!-- Generator: Adobe Illustrator 15.1.0, SVG Export Plug-In . SVG Version: 6.00 Build 0)  -->
<!DOCTYPE svg PUBLIC "-//W3C//DTD SVG 1.1//EN" "http://www.w3.org/Graphics/SVG/1.1/DTD/svg11.dtd">
<svg version="1.1" id="Layer_1" xmlns="http://www.w3.org/2000/svg" xmlns:xlink="http://www.w3.org/1999/xlink" x="0px" y="0px"
	 width="2588.439px" height="611.275px" viewBox="-353.216 0 2588.439 611.275"
	 enable-background="new -353.216 0 2588.439 611.275" xml:space="preserve">
<g>
	<rect x="-353.216" fill="#AFECF4" width="2588.439" height="611.237"/>
	<g>
		<g>
			<path fill="#96FE91" d="M794.206,367.294c0-26.96-20.289-48.893-45.24-48.893c-1.354,0-2.725,0.074-4.102,0.216
				c-4.179-10.901-14.71-18.451-26.911-18.451c-15.896,0-28.818,12.925-28.818,28.819c0,0.279,0,0.56,0.006,0.838
				c-24.697,3.387-43.792,24.634-43.792,50.242c0,10.764,3.421,21.122,9.63,29.688c-12.397,5.696-20.574,17.251-20.574,30.508
				c0,18.909,17.025,34.301,37.945,34.301c10.129,0,19.822-3.71,26.887-10.117c4.809,1.869,9.936,2.737,15.07,2.725
				c0,12.425,0,143.438,0,143.438h10.949c0,0,0-131.812,0-144.937c3.949-1.059,7.775-2.627,11.291-4.812
				c7.772,6.524,17.172,10.052,27.016,10.052c24.943,0,45.236-22.747,45.236-50.711c0-15.249-6.061-29.492-16.43-39.083
				C793.589,376.642,794.206,372.009,794.206,367.294z M958.385,327.161c0-18.223-9.898-34.533-25.654-42.993
				c0.073-0.868,0.117-1.74,0.117-2.611c0-15.896-12.935-28.824-28.828-28.824c-15.891,0-28.82,12.929-28.82,28.824
				c0,3.183,0.537,6.331,1.564,9.329c-7.863,7.086-13.213,16.507-15.233,26.88c-30.853,9.043-52.002,37.01-52.002,69.598
				c0,38.799,30.623,70.495,68.954,72.415c0,15.646,0,150.824,0,150.824h10.948c0,0,0-135.291,0-151.013
				c36.617-3.666,65.305-34.66,65.305-72.229c0-10.469-2.273-20.85-6.608-30.295C954.776,348.519,958.385,338.069,958.385,327.161z"
				/>
		</g>
		<path fill="#C0FEBD" d="M878.398,347.595c-2.25,0-22.216,0.393-31.306,14.031c-8.366,12.544-8.46,25.202-8.46,25.738
			c0,3.826,3.107,6.929,6.93,6.929s6.931-3.103,6.931-6.929c0-0.083,0.167-9.096,6.138-18.045c4.25-6.377,15.725-7.836,19.789-7.856
			c3.819-0.013,6.912-3.106,6.912-6.935C885.332,350.707,882.229,347.595,878.398,347.595z"/>
		<path fill="#C0FEBD" d="M726.306,343.952c-3.67-1.064-7.519,1.08-8.563,4.76c-1.06,3.676,1.08,7.521,4.76,8.571
			c10.417,2.977,23.046,9.362,24.513,13.771c2.839,8.51,0.017,17.449,0,17.508c-1.211,3.629,0.751,7.552,4.385,8.769
			c0.729,0.237,1.467,0.354,2.192,0.354c2.898,0,5.604-1.835,6.575-4.745c0.179-0.539,4.329-13.289,0-26.271
			C755.594,352.944,731.157,345.337,726.306,343.952z"/>
	</g>
	<g>
		<g>
			<path fill="#96FE91" d="M159.803,367.294c0-26.96-20.289-48.893-45.24-48.893c-1.354,0-2.725,0.074-4.102,0.216
				c-4.178-10.901-14.71-18.451-26.911-18.451c-15.895,0-28.818,12.925-28.818,28.819c0,0.279,0,0.56,0.006,0.838
				c-24.698,3.387-43.792,24.634-43.792,50.242c0,10.764,3.421,21.122,9.629,29.688C8.177,415.452,0,427.006,0,440.263
				c0,18.909,17.026,34.3,37.946,34.3c10.128,0,19.822-3.709,26.886-10.116c4.809,1.869,9.936,2.737,15.071,2.725
				c0,12.425,0,143.438,0,143.438h10.949c0,0,0-131.812,0-144.937c3.949-1.059,7.775-2.627,11.291-4.812
				c7.772,6.524,17.172,10.052,27.015,10.052c24.944,0,45.237-22.747,45.237-50.711c0-15.249-6.061-29.492-16.43-39.083
				C159.187,376.642,159.803,372.009,159.803,367.294z M323.982,327.161c0-18.223-9.899-34.533-25.655-42.993
				c0.074-0.868,0.118-1.74,0.118-2.611c0-15.896-12.935-28.824-28.828-28.824c-15.891,0-28.821,12.929-28.821,28.824
				c0,3.183,0.537,6.331,1.565,9.329c-7.864,7.086-13.213,16.507-15.234,26.88c-30.852,9.043-52.002,37.01-52.002,69.598
				c0,38.799,30.623,70.495,68.954,72.415c0,15.646,0,150.824,0,150.824h10.949c0,0,0-135.291,0-151.013
				c36.617-3.666,65.304-34.66,65.304-72.229c0-10.469-2.273-20.85-6.608-30.295C320.373,348.519,323.982,338.069,323.982,327.161z"
				/>
		</g>
		<path fill="#C0FEBD" d="M243.995,347.595c-2.25,0-22.215,0.393-31.305,14.031c-8.366,12.544-8.46,25.202-8.46,25.738
			c0,3.826,3.107,6.929,6.929,6.929c3.823,0,6.931-3.103,6.931-6.929c0-0.083,0.167-9.096,6.138-18.045
			c4.25-6.377,15.724-7.836,19.789-7.856c3.819-0.013,6.912-3.106,6.912-6.935C250.929,350.707,247.825,347.595,243.995,347.595z"/>
		<path fill="#C0FEBD" d="M91.903,343.952c-3.67-1.064-7.519,1.08-8.564,4.76c-1.059,3.676,1.08,7.521,4.76,8.571
			c10.417,2.977,23.046,9.362,24.513,13.771c2.838,8.51,0.016,17.449,0,17.508c-1.211,3.629,0.751,7.552,4.384,8.769
			c0.729,0.237,1.467,0.354,2.193,0.354c2.898,0,5.604-1.835,6.575-4.745c0.179-0.539,4.329-13.289,0-26.271
			C121.191,352.944,96.754,345.337,91.903,343.952z"/>
	</g>
	<g>
		<g>
			<path fill="#96FE91" d="M2024.086,381.118c-10.369,9.591-16.43,23.834-16.43,39.083c0,27.964,20.293,50.711,45.236,50.711
				c9.844,0,19.241-3.526,27.016-10.052c3.516,2.185,7.342,3.753,11.291,4.812c0,13.123,0,144.937,0,144.937h10.949
				c0,0,0-131.013,0-143.438c5.135,0.014,10.262-0.854,15.07-2.725c7.063,6.407,16.758,10.117,26.887,10.117
				c20.92,0,37.945-15.392,37.945-34.301c0-13.257-8.177-24.812-20.574-30.508c6.209-8.566,9.629-18.926,9.629-29.688
				c0-25.609-19.094-46.856-43.791-50.243c0.006-0.278,0.006-0.56,0.006-0.837c0-15.896-12.924-28.82-28.818-28.82
				c-12.201,0-22.733,7.55-26.912,18.451c-1.377-0.143-2.748-0.215-4.102-0.215c-24.951,0-45.24,21.932-45.24,48.892
				C2022.249,372.009,2022.866,376.642,2024.086,381.118z M1868.329,357.067c-4.336,9.445-6.609,19.826-6.609,30.295
				c0,37.567,28.688,68.562,65.306,72.229c0,15.722,0,151.013,0,151.013h10.948c0,0,0-135.18,0-150.824
				c38.33-1.92,68.953-33.616,68.953-72.415c0-32.588-21.149-60.555-52.002-69.598c-2.021-10.373-7.369-19.794-15.233-26.881
				c1.028-2.998,1.565-6.146,1.565-9.329c0-15.896-12.932-28.824-28.821-28.824c-15.894,0-28.828,12.929-28.828,28.824
				c0,0.872,0.045,1.743,0.119,2.611c-15.757,8.46-25.656,24.771-25.656,42.993C1858.069,338.069,1861.678,348.519,1868.329,357.067
				z"/>
		</g>
		<path fill="#C0FEBD" d="M1931.124,354.528c0,3.828,3.092,6.923,6.912,6.936c4.063,0.021,15.539,1.479,19.789,7.855
			c5.971,8.951,6.137,17.963,6.137,18.046c0,3.827,3.107,6.929,6.932,6.929c3.82,0,6.929-3.102,6.929-6.929
			c0-0.536-0.095-13.194-8.459-25.738c-9.09-13.64-29.056-14.03-31.306-14.03C1934.227,347.595,1931.124,350.707,1931.124,354.528z"
			/>
		<path fill="#C0FEBD" d="M2056.288,366.667c-4.328,12.98-0.178,25.73,0,26.271c0.973,2.91,3.678,4.745,6.576,4.745
			c0.727,0,1.463-0.116,2.192-0.354c3.634-1.217,5.595-5.14,4.384-8.769c-0.017-0.059-2.838-8.998,0-17.509
			c1.467-4.405,14.096-10.793,24.514-13.77c3.68-1.052,5.818-4.896,4.76-8.571c-1.047-3.68-4.895-5.824-8.563-4.76
			C2085.297,345.337,2060.86,352.944,2056.288,366.667z"/>
	</g>
	<g>
		<g>
			<path fill="#211B59" d="M489.811,458.702l-8.562-29.772v-0.002c-0.385-1.334-1.363-2.44-2.672-3.192
				c0.964-1.486,1.538-3.249,1.538-5.148v-27.304c0-5.242-4.265-9.507-9.507-9.507H262.753c-5.242,0-9.506,4.265-9.506,9.507v27.304
				c0,1.899,0.574,3.662,1.537,5.148c-1.309,0.752-2.287,1.858-2.671,3.194l-8.56,29.771c-0.19,0.387-0.318,0.806-0.318,1.266v12.31
				c0,1.605,1.302,2.907,2.909,2.907h11.437v128.824c0,4.008,3.26,7.27,7.267,7.27h13.404h177.185h13.079
				c4.009,0,7.27-3.262,7.27-7.27V475.182h11.435c1.606,0,2.909-1.302,2.909-2.907v-12.31
				C490.127,459.506,489.999,459.087,489.811,458.702z"/>
		</g>
		<path fill="#7A769B" d="M350.453,419.929c1.688,0,3.25-0.39,4.589-1.179l5.71,4.874c0.5,0.426,1.112,0.635,1.721,0.635
			c0.75,0,1.495-0.315,2.021-0.93c0.79-0.928,0.791-2.218,0.143-3.182l2.966-4.516c0.625,0.162,1.275,0.27,1.97,0.27
			c0.249,0,0.5-0.011,0.754-0.03c3.524-0.29,7.388-2.579,10.333-6.125c3.955-4.757,4.31-13.942,4.327-16.653
			c0.231-0.539,0.177-0.979-0.109-1.537c-0.23-0.447-0.666-0.764-1.15-0.921c-0.051-0.016-0.099-0.036-0.15-0.05
			c-0.229-0.059-0.469-0.084-0.712-0.048c-0.473,0.065-11.593,1.698-16.177,7.215c-4.479,5.393-5.469,11.891-2.624,15.538
			l-2.602,3.962l-3.1-2.646c0.632-1.749,0.806-3.778,0.359-6.047c-0.689-3.504-2.655-7.133-5.537-10.213h0.001
			c-5.888-6.302-19.598-7.602-20.178-7.654c-0.514-0.037-1.046,0.131-1.435,0.492c-0.387,0.36-0.601,0.871-0.588,1.398
			c0.013,0.583,0.384,14.348,6.272,20.648C341.309,417.568,346.255,419.929,350.453,419.929z"/>
		<path fill="#211B59" d="M350.471,400.883C350.472,400.883,350.472,400.883,350.471,400.883c2.413,2.581,4.048,5.563,4.605,8.396
			c0.188,0.963,0.201,1.827,0.124,2.631c-0.052,0.539-0.162,1.034-0.331,1.486l-6.922-7.406l-10.043-10.748
			C342.049,396.119,347.592,397.801,350.471,400.883z"/>
		<path fill="#211B59" d="M344.591,407.834l7.57,8.101c-0.104,0.032-0.214,0.056-0.324,0.079c-3.234,0.753-8.083-1.27-11.868-5.315
			c-2.88-3.083-4.184-8.729-4.777-12.923L344.591,407.834z"/>
		<path fill="#211B59" d="M370.022,412.171c-0.053,0.004-0.089-0.014-0.14-0.011c-0.369,0.021-0.692-0.022-1.009-0.075
			c1.554-2.248,3.217-4.394,4.882-6.388c2.626-3.144,5.197-5.878,7.222-7.989c-0.405,3.432-1.312,7.422-3.175,9.665
			C375.516,410.125,372.535,411.964,370.022,412.171z"/>
		<path fill="#211B59" d="M377.967,395.483c-2.048,2.144-4.729,5.015-7.457,8.313c-0.39,0.473-0.776,0.963-1.166,1.451
			c-1.044,1.31-2.077,2.657-3.066,4.056c-0.41-2.368,0.546-5.902,3.266-9.18C371.331,397.975,374.819,396.457,377.967,395.483z"/>
		<path fill="#7A769B" d="M468.069,606.39h-5.969c0.286-0.798,0.47-1.644,0.47-2.538V491.458c0-4.18-3.401-7.58-7.58-7.58h-51.743
			c-4.178,0-7.579,3.4-7.579,7.58v112.396c0,0.895,0.183,1.739,0.47,2.537"/>
		<g>
			<path fill="#211B59" d="M408.95,534.107v21.772c0,0.899-0.729,1.629-1.629,1.629h-2.488c-0.9,0-1.63-0.729-1.63-1.629v-21.772
				c0-0.899,0.729-1.63,1.63-1.63h2.488C408.221,532.479,408.95,533.208,408.95,534.107z"/>
			<path fill="#211B59" d="M445.661,576.139H414.39c-1.977,0-3.582,1.605-3.582,3.583v13.805c0,1.977,1.605,3.582,3.582,3.582
				h31.271c1.977,0,3.582-1.605,3.582-3.582v-13.805C449.243,577.745,447.637,576.139,445.661,576.139z"/>
			<path fill="#211B59" d="M445.479,493.16h-30.907c-2.132,0-3.865,1.731-3.865,3.864v71.971c0,2.132,1.733,3.865,3.865,3.865
				h30.907c2.134,0,3.865-1.733,3.865-3.865v-71.971C449.344,494.892,447.612,493.16,445.479,493.16z"/>
			<g>
				<rect x="414.786" y="580.118" fill="#7A769B" width="30.479" height="13.012"/>
				<polygon fill="#7A769B" points="445.419,531.02 432.014,531.02 432.014,515.105 445.394,515.105 				"/>
				<polygon fill="#7A769B" points="445.452,550.915 432.014,550.915 432.014,534.999 445.426,534.999 				"/>
				<polygon fill="#7A769B" points="414.631,534.999 428.036,534.999 428.036,550.915 414.657,550.915 				"/>
				<polygon fill="#7A769B" points="414.6,515.105 428.036,515.105 428.036,531.02 414.625,531.02 				"/>
				<polygon fill="#7A769B" points="445.387,511.126 432.014,511.126 432.014,497.074 445.366,497.024 				"/>
				<polygon fill="#7A769B" points="428.036,497.088 428.036,511.126 414.593,511.126 414.571,497.138 				"/>
				<polygon fill="#7A769B" points="428.036,554.893 428.036,568.881 414.685,568.881 414.663,554.893 				"/>
				<polygon fill="#7A769B" points="432.014,568.881 432.014,554.893 445.458,554.893 445.479,568.881 				"/>
				<rect x="414.593" y="497.088" fill="#7A769B" width="13.442" height="14.038"/>
				<rect x="432.014" y="497.074" fill="#7A769B" width="13.373" height="14.053"/>
				<rect x="432.014" y="515.105" fill="#7A769B" width="13.405" height="15.914"/>
				<rect x="414.625" y="515.105" fill="#7A769B" width="13.411" height="15.914"/>
				<rect x="432.014" y="534.999" fill="#7A769B" width="13.438" height="15.916"/>
				<rect x="414.657" y="534.999" fill="#7A769B" width="13.379" height="15.916"/>
				<rect x="432.014" y="554.893" fill="#7A769B" width="13.443" height="13.988"/>
				<rect x="414.685" y="554.893" fill="#7A769B" width="13.352" height="13.988"/>
				<rect x="414.786" y="580.118" fill="#7A769B" width="30.479" height="13.012"/>
			</g>
		</g>
		<path fill="#211B59" d="M279.251,606.454c-1.581,0-2.865-1.285-2.865-2.862V491.284c0-1.58,1.285-2.865,2.865-2.865h99.324
			c1.58,0,2.865,1.285,2.865,2.865v112.308c0,1.577-1.285,2.862-2.865,2.862"/>
		<path fill="#7A769B" d="M385.924,606.454c0.349-0.89,0.557-1.852,0.557-2.862V491.284c0-4.359-3.547-7.906-7.905-7.906h-99.324
			c-4.359,0-7.906,3.547-7.906,7.906v112.308c0,1.012,0.208,1.974,0.557,2.862h-6.055"/>
		<path fill="#211B59" d="M317.521,555.942c-4.418-1.908-9.026-0.748-10.497,2.643l-0.001,0.003
			c-0.054,0.122-0.066,0.252-0.109,0.376l-0.005-0.001l-0.009,0.049l-0.274,1.512l-2.104,11.588l-0.561-2.08
			c0.127-0.673,0.183-1.352,0.081-2.023c-0.657-4.301-5.657-6.983-11.391-6.108c-3.335,0.511-8.986,3.831-13.139,6.525
			c-1.001,0.649-1.503,1.914-1.312,3.303c0.193,1.406,1.031,2.505,2.186,2.862c4.203,1.3,9.648,2.734,13.197,2.734
			c0.511,0,0.984-0.027,1.408-0.094c2.549-0.388,4.853-1.456,6.533-2.998l1.505,5.582H294.9c-0.732,0-1.326,0.595-1.326,1.325v2.271
			c0,0.731,0.594,1.326,1.326,1.326h20.94c0.732,0,1.326-0.595,1.326-1.326v-2.271c0-0.73-0.594-1.325-1.326-1.325h-9.212
			l2.511-13.827c0.867,0.814,1.911,1.531,3.142,2.062c1.547,0.669,4.229,1.006,8.004,1.006c1.208,0,2.527-0.036,3.959-0.104
			c1.094-0.056,2.079-0.816,2.567-1.99c0.484-1.163,0.334-2.388-0.392-3.193C322.543,559.455,319.548,556.821,317.521,555.942z"/>
		<path fill="#7A769B" d="M300.393,570.038c-0.288,0.679-0.745,1.241-1.097,1.576c-1.166,1.11-2.924,1.917-4.824,2.207
			c-1.895,0.29-5.998-0.454-11.378-2.025c2.793-0.587,11.297-2.234,17.252-1.933c0.037,0.002,0.075,0.005,0.111,0.007
			C300.437,569.926,300.416,569.982,300.393,570.038z"/>
		<path fill="#7A769B" d="M299.993,567.188c-4.577-0.157-10.239,0.662-14.078,1.354c3.236-1.859,5.79-3.011,7.256-3.235
			C296.077,564.871,298.788,565.696,299.993,567.188z"/>
		<path fill="#7A769B" d="M316.15,559.108c1.018,0.438,2.701,1.816,4.736,3.837c-3.582-2.006-6.995-3.487-8.938-4.276
			C313.127,558.356,314.682,558.47,316.15,559.108z"/>
		<path fill="#211B59" d="M313.649,564.884c-2.049-0.886-3.479-2.578-3.582-4.01l0.017-0.094c1.607,0.63,5.825,2.371,10.099,4.82
			C317.053,565.594,314.71,565.345,313.649,564.884z"/>
		<path fill="#211B59" d="M372.469,561.042c1.146-1.624,1.484-3.328,1.529-3.582c0.115-0.64-0.038-1.301-0.421-1.826
			c-0.383-0.524-0.966-0.873-1.611-0.958c-0.263-0.037-2.057-0.241-3.997,0.359c-0.859-1.805-2.22-2.953-2.424-3.119
			c-0.495-0.401-1.131-0.601-1.76-0.521c-0.633,0.067-1.213,0.387-1.609,0.882c-0.166,0.207-1.251,1.618-1.708,3.566
			c-2.034-0.177-3.73,0.404-3.979,0.492c-0.613,0.223-1.108,0.685-1.373,1.279c-0.264,0.596-0.272,1.273-0.023,1.875
			c0.1,0.241,0.792,1.835,2.255,3.177c-1.145,1.621-1.483,3.323-1.528,3.577c-0.116,0.642,0.035,1.303,0.421,1.829
			c0.383,0.524,0.966,0.872,1.61,0.958c0.181,0.021,1.082,0.106,2.231-0.016l-2.667,12.821l0.629,0.131h-6.247l-2.348-12.021
			c1.964,0.163,3.56-0.209,3.825-0.278c0.632-0.163,1.168-0.574,1.486-1.146c0.318-0.566,0.392-1.239,0.201-1.864
			c-0.101-0.326-0.868-2.673-2.808-4.555c1.892-1.933,2.6-4.298,2.69-4.626c0.175-0.627,0.085-1.301-0.247-1.859
			c-0.333-0.561-0.881-0.959-1.516-1.105c-0.339-0.078-2.835-0.606-5.496,0.126c-0.76-2.601-2.526-4.399-2.773-4.645
			c-0.455-0.447-1.175-0.647-1.702-0.688c-0.638,0.012-1.243,0.272-1.688,0.729c-0.241,0.251-1.959,2.095-2.653,4.714
			c-2.676-0.673-5.162-0.074-5.498,0.014c-0.631,0.163-1.167,0.575-1.485,1.146c-0.319,0.566-0.392,1.241-0.201,1.865
			c0.101,0.325,0.868,2.673,2.808,4.557c-1.892,1.93-2.599,4.294-2.69,4.623c-0.175,0.628-0.086,1.299,0.247,1.857
			c0.332,0.56,0.878,0.96,1.513,1.108c0.341,0.08,2.844,0.611,5.498-0.127c0.76,2.604,2.527,4.403,2.773,4.646
			c0.447,0.438,1.049,0.685,1.673,0.685c0.01,0,0.021,0,0.03,0c0.636-0.01,1.242-0.271,1.685-0.729
			c0.101-0.104,0.481-0.541,0.918-1.145l1.703,8.718h-3.144c-0.731,0-1.326,0.594-1.326,1.326v1.909
			c0,0.731,0.595,1.325,1.326,1.325h19.206c0.733,0,1.327-0.594,1.327-1.325v-1.909c0-0.732-0.594-1.326-1.327-1.326h-2.354
			l2.232-10.732c0.282,0.282,0.52,0.498,0.59,0.557c0.428,0.345,0.958,0.534,1.505,0.534c0.085,0,0.169-0.005,0.255-0.017
			c0.632-0.066,1.211-0.386,1.607-0.881c0.165-0.207,1.25-1.616,1.708-3.563c2.017,0.179,3.735-0.406,3.984-0.494
			c0.612-0.225,1.106-0.688,1.37-1.282c0.263-0.595,0.271-1.271,0.022-1.876C374.626,563.975,373.932,562.382,372.469,561.042z"/>
		<path fill="#7A769B" d="M339.507,562.264c-0.024-2.026,1.64-3.692,3.718-3.72c2.078-0.026,3.785,1.597,3.811,3.624
			c0.015,1.169-0.542,2.205-1.405,2.889c-0.321,0.254-0.681,0.455-1.076,0.598c-0.389,0.138-0.8,0.229-1.235,0.234
			C341.238,565.916,339.533,564.292,339.507,562.264z"/>
		
			<ellipse transform="matrix(0.9943 -0.1067 0.1067 0.9943 -57.8907 42.1597)" fill="#7A769B" cx="364.878" cy="561.85" rx="2.909" ry="2.839"/>
		<path fill="#211B59" d="M376.695,606.61h-14.392l1.82-16.898c0.078-0.727-0.491-1.359-1.222-1.359h-3.747h-9.911h-3.746
			c-0.73,0-1.3,0.634-1.222,1.359l1.819,16.898h-32l1.985-18.439c0.085-0.783-0.53-1.468-1.318-1.468h-4.044h-10.697h-4.043
			c-0.789,0-1.403,0.685-1.319,1.468l1.986,18.439h-19.274"/>
		<path fill="#7A769B" d="M397.138,606.61h-11.66"/>
		<path fill="#211B59" d="M281.5,506.524c-0.764-0.79-0.744-2.05,0.046-2.813l12.51-12.097c0.787-0.766,2.049-0.743,2.813,0.047
			c0.764,0.79,0.743,2.048-0.047,2.812l-12.51,12.098c-0.387,0.374-0.885,0.56-1.384,0.56
			C282.41,507.129,281.89,506.928,281.5,506.524z"/>
		<path fill="#211B59" d="M282.295,514.181l21.66-20.939c0.792-0.766,2.048-0.746,2.812,0.046c0.765,0.79,0.744,2.05-0.046,2.812
			l-21.659,20.94c-0.388,0.373-0.885,0.56-1.383,0.56c-0.521,0-1.041-0.201-1.43-0.604
			C281.485,516.205,281.505,514.945,282.295,514.181z"/>
	</g>
	<g>
		<path fill="#211B59" d="M1754.357,586.327V215.573l-165.119-41.396v412.137h-18.979V-57.277h-261.31v643.604h-18.97V174.183
			l-165.107,41.39v370.753h-68.338v24.615h766.15v-24.615L1754.357,586.327L1754.357,586.327z M1182.906,563.321h-35.521v-35.605
			h35.521V563.321z M1182.906,505.874h-35.521v-35.64h35.521V505.874z M1182.906,448.402h-35.521v-35.62h35.521V448.402z
			 M1182.906,390.94h-35.521v-35.629h35.521V390.94z M1182.906,333.472h-35.521v-35.61h35.521V333.472z M1182.906,276.02h-35.521
			v-35.636h35.521V276.02z M1225.148,563.321h-35.521v-35.605h35.521V563.321z M1225.148,505.874h-35.521v-35.64h35.521V505.874z
			 M1225.148,448.402h-35.521v-35.62h35.521V448.402z M1225.148,390.94h-35.521v-35.629h35.521V390.94z M1225.148,333.472h-35.521
			v-35.61h35.521V333.472z M1225.148,276.02h-35.521v-35.636h35.521V276.02z M1267.555,563.321h-35.529v-35.605h35.529V563.321z
			 M1267.555,505.874h-35.529v-35.64h35.529V505.874z M1267.555,448.402h-35.529v-35.62h35.529V448.402z M1267.555,390.94h-35.529
			v-35.629h35.529V390.94z M1267.555,333.472h-35.529v-35.61h35.529V333.472z M1267.555,276.02h-35.529v-35.636h35.529V276.02z
			 M1376.015,539.591h-44.72v-44.828h44.72V539.591z M1376.015,482.129h-44.72v-44.842h44.72V482.129z M1376.015,424.667h-44.72
			v-44.832h44.72V424.667z M1376.015,367.196h-44.72v-44.832h44.72V367.196z M1376.015,309.737h-44.72v-44.844h44.72V309.737z
			 M1376.015,252.278h-44.72v-44.844h44.72V252.278z M1376.015,194.808h-44.72v-44.843h44.72V194.808z M1376.015,137.346h-44.72
			V92.504h44.72V137.346z M1376.015,79.875h-44.72V35.042h44.72V79.875z M1376.015,22.417h-44.72v-44.833h44.72V22.417z
			 M1433.309,539.591h-44.719v-44.828h44.719V539.591z M1433.309,482.129h-44.719v-44.842h44.719V482.129z M1433.309,424.667
			h-44.719v-44.832h44.719V424.667z M1433.309,367.196h-44.719v-44.832h44.719V367.196z M1433.309,309.737h-44.719v-44.844h44.719
			V309.737z M1433.309,252.278h-44.719v-44.844h44.719V252.278z M1433.309,194.808h-44.719v-44.843h44.719V194.808z
			 M1433.309,137.346h-44.719V92.504h44.719V137.346z M1433.309,79.875h-44.719V35.042h44.719V79.875z M1433.309,22.417h-44.719
			v-44.833h44.719V22.417z M1490.631,539.591h-44.721v-44.828h44.721V539.591z M1490.631,482.129h-44.721v-44.842h44.721V482.129z
			 M1490.631,424.667h-44.721v-44.832h44.721V424.667z M1490.631,367.196h-44.721v-44.832h44.721V367.196z M1490.631,309.737
			h-44.721v-44.844h44.721V309.737z M1490.631,252.278h-44.721v-44.844h44.721V252.278z M1490.631,194.808h-44.721v-44.843h44.721
			V194.808z M1490.631,137.346h-44.721V92.504h44.721V137.346z M1490.631,79.875h-44.721V35.042h44.721V79.875z M1490.631,22.417
			h-44.721v-44.833h44.721V22.417z M1547.925,539.591h-44.721v-44.828h44.721V539.591z M1547.925,482.129h-44.721v-44.842h44.721
			V482.129z M1547.925,424.667h-44.721v-44.832h44.721V424.667z M1547.925,367.196h-44.721v-44.832h44.721V367.196z
			 M1547.925,309.737h-44.721v-44.844h44.721V309.737z M1547.925,252.278h-44.721v-44.844h44.721V252.278z M1547.925,194.808
			h-44.721v-44.843h44.721V194.808z M1547.925,137.346h-44.721V92.504h44.721V137.346z M1547.925,79.875h-44.721V35.042h44.721
			V79.875z M1547.925,22.417h-44.721v-44.833h44.721V22.417z M1647.188,563.321h-35.515v-35.605h35.515V563.321z M1647.188,505.874
			h-35.515v-35.64h35.515V505.874z M1647.188,448.402h-35.515v-35.62h35.515V448.402z M1647.188,390.94h-35.515v-35.629h35.515
			V390.94z M1647.188,333.472h-35.515v-35.61h35.515V333.472z M1647.188,276.02h-35.515v-35.636h35.515V276.02z M1689.438,563.321
			h-35.543v-35.605h35.543V563.321z M1689.438,505.874h-35.543v-35.64h35.543V505.874z M1689.438,448.402h-35.543v-35.62h35.543
			V448.402z M1689.438,390.94h-35.543v-35.629h35.543V390.94z M1689.438,333.472h-35.543v-35.61h35.543V333.472z M1689.438,276.02
			h-35.543v-35.636h35.543V276.02z M1731.865,563.321h-35.542v-35.605h35.542V563.321z M1731.865,505.874h-35.542v-35.64h35.542
			V505.874z M1731.865,448.402h-35.542v-35.62h35.542V448.402z M1731.865,390.94h-35.542v-35.629h35.542V390.94z M1731.865,333.472
			h-35.542v-35.61h35.542V333.472z M1731.865,276.02h-35.542v-35.636h35.542V276.02z"/>
		<g>
			<rect x="1503.205" y="-22.417" fill="#7A769B" width="44.721" height="44.833"/>
			<rect x="1503.205" y="35.042" fill="#7A769B" width="44.721" height="44.832"/>
			<rect x="1503.205" y="92.504" fill="#7A769B" width="44.721" height="44.842"/>
			<rect x="1503.205" y="149.964" fill="#7A769B" width="44.721" height="44.843"/>
			<rect x="1503.205" y="207.434" fill="#7A769B" width="44.721" height="44.844"/>
			<rect x="1503.205" y="264.893" fill="#7A769B" width="44.721" height="44.844"/>
			<rect x="1503.205" y="322.364" fill="#7A769B" width="44.721" height="44.833"/>
			<rect x="1503.205" y="379.835" fill="#7A769B" width="44.721" height="44.832"/>
			<rect x="1503.205" y="437.288" fill="#7A769B" width="44.721" height="44.842"/>
			<rect x="1503.205" y="494.763" fill="#7A769B" width="44.721" height="44.828"/>
			<rect x="1445.917" y="-22.417" fill="#7A769B" width="44.716" height="44.833"/>
			<rect x="1445.917" y="35.042" fill="#7A769B" width="44.716" height="44.832"/>
			<rect x="1445.917" y="92.504" fill="#7A769B" width="44.716" height="44.842"/>
			<rect x="1445.917" y="149.964" fill="#7A769B" width="44.716" height="44.843"/>
			<rect x="1445.917" y="207.434" fill="#7A769B" width="44.716" height="44.844"/>
			<rect x="1445.917" y="264.893" fill="#7A769B" width="44.716" height="44.844"/>
			<rect x="1445.917" y="322.364" fill="#7A769B" width="44.716" height="44.833"/>
			<rect x="1445.917" y="379.835" fill="#7A769B" width="44.716" height="44.832"/>
			<rect x="1445.917" y="437.288" fill="#7A769B" width="44.716" height="44.842"/>
			<rect x="1445.917" y="494.763" fill="#7A769B" width="44.716" height="44.828"/>
			<rect x="1388.432" y="-22.417" fill="#7A769B" width="44.719" height="44.833"/>
			<rect x="1388.432" y="35.042" fill="#7A769B" width="44.719" height="44.832"/>
			<rect x="1388.432" y="92.504" fill="#7A769B" width="44.719" height="44.842"/>
			<rect x="1388.432" y="149.964" fill="#7A769B" width="44.719" height="44.843"/>
			<rect x="1388.432" y="207.434" fill="#7A769B" width="44.719" height="44.844"/>
			<rect x="1388.432" y="264.893" fill="#7A769B" width="44.719" height="44.844"/>
			<rect x="1388.432" y="322.364" fill="#7A769B" width="44.719" height="44.833"/>
			<rect x="1388.432" y="379.835" fill="#7A769B" width="44.719" height="44.832"/>
			<rect x="1388.432" y="437.288" fill="#7A769B" width="44.719" height="44.842"/>
			<rect x="1388.432" y="494.763" fill="#7A769B" width="44.719" height="44.828"/>
			<rect x="1331.237" y="-22.417" fill="#7A769B" width="44.718" height="44.833"/>
			<rect x="1331.237" y="35.042" fill="#7A769B" width="44.718" height="44.832"/>
			<rect x="1331.237" y="92.504" fill="#7A769B" width="44.718" height="44.842"/>
			<rect x="1331.237" y="149.964" fill="#7A769B" width="44.718" height="44.843"/>
			<rect x="1331.237" y="207.434" fill="#7A769B" width="44.718" height="44.844"/>
			<rect x="1331.237" y="264.893" fill="#7A769B" width="44.718" height="44.844"/>
			<rect x="1331.237" y="322.364" fill="#7A769B" width="44.718" height="44.833"/>
			<rect x="1331.237" y="379.835" fill="#7A769B" width="44.718" height="44.832"/>
			<rect x="1331.237" y="437.288" fill="#7A769B" width="44.718" height="44.842"/>
			<rect x="1331.237" y="494.763" fill="#7A769B" width="44.718" height="44.828"/>
			<rect x="1611.673" y="240.383" fill="#7A769B" width="35.515" height="35.636"/>
			<rect x="1611.673" y="297.862" fill="#7A769B" width="35.515" height="35.61"/>
			<rect x="1611.673" y="355.312" fill="#7A769B" width="35.515" height="35.629"/>
			<rect x="1611.673" y="412.782" fill="#7A769B" width="35.515" height="35.62"/>
			<rect x="1611.673" y="470.234" fill="#7A769B" width="35.515" height="35.64"/>
			<rect x="1611.673" y="527.715" fill="#7A769B" width="35.515" height="35.605"/>
			<rect x="1654.042" y="240.383" fill="#7A769B" width="35.514" height="35.636"/>
			<rect x="1654.042" y="297.862" fill="#7A769B" width="35.514" height="35.61"/>
			<rect x="1654.042" y="355.312" fill="#7A769B" width="35.514" height="35.629"/>
			<rect x="1654.042" y="412.782" fill="#7A769B" width="35.514" height="35.62"/>
			<rect x="1654.042" y="470.234" fill="#7A769B" width="35.514" height="35.64"/>
			<rect x="1654.042" y="527.715" fill="#7A769B" width="35.514" height="35.605"/>
			<rect x="1696.405" y="240.383" fill="#7A769B" width="35.518" height="35.636"/>
			<rect x="1696.405" y="297.862" fill="#7A769B" width="35.518" height="35.61"/>
			<rect x="1696.405" y="355.312" fill="#7A769B" width="35.518" height="35.629"/>
			<rect x="1696.405" y="412.782" fill="#7A769B" width="35.518" height="35.62"/>
			<rect x="1696.405" y="470.234" fill="#7A769B" width="35.518" height="35.64"/>
			<rect x="1696.405" y="527.715" fill="#7A769B" width="35.518" height="35.605"/>
			<rect x="1147.181" y="240.383" fill="#7A769B" width="35.516" height="35.636"/>
			<rect x="1147.181" y="297.862" fill="#7A769B" width="35.516" height="35.61"/>
			<rect x="1147.181" y="355.312" fill="#7A769B" width="35.516" height="35.629"/>
			<rect x="1147.181" y="412.782" fill="#7A769B" width="35.516" height="35.62"/>
			<rect x="1147.181" y="470.234" fill="#7A769B" width="35.516" height="35.64"/>
			<rect x="1147.181" y="527.715" fill="#7A769B" width="35.516" height="35.605"/>
			<rect x="1189.546" y="240.383" fill="#7A769B" width="35.517" height="35.636"/>
			<rect x="1189.546" y="297.862" fill="#7A769B" width="35.517" height="35.61"/>
			<rect x="1189.546" y="355.312" fill="#7A769B" width="35.517" height="35.629"/>
			<rect x="1189.546" y="412.782" fill="#7A769B" width="35.517" height="35.62"/>
			<rect x="1189.546" y="470.234" fill="#7A769B" width="35.517" height="35.64"/>
			<rect x="1189.546" y="527.715" fill="#7A769B" width="35.517" height="35.605"/>
			<rect x="1231.915" y="240.383" fill="#7A769B" width="35.514" height="35.636"/>
			<rect x="1231.915" y="297.862" fill="#7A769B" width="35.514" height="35.61"/>
			<rect x="1231.915" y="355.312" fill="#7A769B" width="35.514" height="35.629"/>
			<rect x="1231.915" y="412.782" fill="#7A769B" width="35.514" height="35.62"/>
			<rect x="1231.915" y="470.234" fill="#7A769B" width="35.514" height="35.64"/>
			<rect x="1231.915" y="527.715" fill="#7A769B" width="35.514" height="35.605"/>
		</g>
	</g>
</g>
<g>
	<g>
		<path fill="#E9FBFC" d="M646.085,122.847c-2.145,0-4.197,0.371-6.125,1.042c-0.323-11.721-9.159-21.12-20.061-21.12
			c-4.577,0-8.764,1.667-12.142,4.462c-2.436-11.987-12.271-20.969-24.072-20.969c-13.608,0-24.654,11.954-24.654,26.703
			c0,0.09,0.021,0.181,0.021,0.278c-1.108-0.17-2.218-0.278-3.364-0.278c-13.615,0.001-24.654,11.945-24.654,26.69
			c0,14.754,11.039,26.717,24.654,26.717h90.397c11.088,0,20.078-9.743,20.078-21.768
			C666.164,132.585,657.173,122.847,646.085,122.847z"/>
	</g>
</g>
<g>
	<g>
		<path fill="#E9FBFC" d="M387.419,138.632c-1.366,0-2.674,0.235-3.903,0.664c-0.206-7.472-5.837-13.462-12.785-13.462
			c-2.918,0-5.585,1.062-7.738,2.844c-1.552-7.639-7.821-13.365-15.342-13.365c-8.677,0-15.716,7.619-15.716,17.018
			c0,0.058,0.014,0.116,0.014,0.179c-0.708-0.108-1.414-0.179-2.146-0.179c-8.679,0.002-15.714,7.616-15.714,17.012
			c0,9.406,7.035,17.03,15.714,17.03h57.616c7.067,0,12.798-6.209,12.798-13.874C400.217,144.838,394.487,138.632,387.419,138.632z"
			/>
	</g>
</g>
<g>
	<g>
		<path fill="#E9FBFC" d="M477.326,129.786c-1.803,0-3.527,0.31-5.149,0.876c-0.271-9.854-7.7-17.754-16.862-17.754
			c-3.849,0-7.365,1.4-10.206,3.75c-2.048-10.075-10.315-17.626-20.234-17.626c-11.442,0-20.726,10.048-20.726,22.446
			c0,0.075,0.018,0.152,0.018,0.235c-0.934-0.144-1.866-0.235-2.829-0.235c-11.448,0.001-20.725,10.044-20.725,22.437
			c0,12.405,9.276,22.459,20.725,22.459h75.989c9.318,0,16.877-8.189,16.877-18.299
			C494.204,137.972,486.646,129.786,477.326,129.786z"/>
	</g>
</g>
<g>
	<g>
		<path fill="#E9FBFC" d="M2028.401,122.847c-2.146,0-4.197,0.371-6.125,1.042c-0.323-11.721-9.159-21.12-20.062-21.12
			c-4.577,0-8.763,1.667-12.141,4.462c-2.437-11.987-12.272-20.969-24.072-20.969c-13.609,0-24.655,11.954-24.655,26.703
			c0,0.09,0.021,0.181,0.021,0.278c-1.109-0.17-2.218-0.278-3.364-0.278c-13.616,0.001-24.655,11.945-24.655,26.69
			c0,14.754,11.039,26.717,24.655,26.717h90.396c11.089,0,20.078-9.743,20.078-21.768
			C2048.479,132.585,2039.489,122.847,2028.401,122.847z"/>
	</g>
</g>
<g>
	<g>
		<path fill="#E9FBFC" d="M1769.735,138.632c-1.366,0-2.675,0.235-3.903,0.664c-0.205-7.472-5.837-13.462-12.786-13.462
			c-2.917,0-5.584,1.062-7.738,2.844c-1.552-7.639-7.82-13.365-15.342-13.365c-8.676,0-15.715,7.619-15.715,17.018
			c0,0.058,0.013,0.116,0.013,0.179c-0.709-0.108-1.414-0.179-2.145-0.179c-8.681,0.002-15.714,7.616-15.714,17.012
			c0,9.406,7.034,17.03,15.714,17.03h57.615c7.067,0,12.799-6.209,12.799-13.874
			C1782.533,144.838,1776.802,138.632,1769.735,138.632z"/>
	</g>
</g>
<g>
	<g>
		<path fill="#E9FBFC" d="M1859.642,129.786c-1.804,0-3.526,0.31-5.149,0.876c-0.271-9.854-7.699-17.754-16.862-17.754
			c-3.848,0-7.365,1.4-10.206,3.75c-2.047-10.075-10.314-17.626-20.234-17.626c-11.44,0-20.726,10.048-20.726,22.446
			c0,0.075,0.018,0.152,0.018,0.235c-0.935-0.144-1.865-0.235-2.829-0.235c-11.446,0.001-20.725,10.044-20.725,22.437
			c0,12.405,9.277,22.459,20.725,22.459h75.99c9.318,0,16.877-8.189,16.877-18.299
			C1876.52,137.972,1868.96,129.786,1859.642,129.786z"/>
	</g>
</g>
</svg>
