<?xml version="1.0" encoding="utf-8"?>
<!-- Generator: Adobe Illustrator 15.1.0, SVG Export Plug-In . SVG Version: 6.00 Build 0)  -->
<!DOCTYPE svg PUBLIC "-//W3C//DTD SVG 1.1//EN" "http://www.w3.org/Graphics/SVG/1.1/DTD/svg11.dtd">
<svg version="1.1" id="Layer_1" xmlns="http://www.w3.org/2000/svg" xmlns:xlink="http://www.w3.org/1999/xlink" x="0px" y="0px"
	 width="224.221px" height="51.018px" viewBox="0 0 224.221 51.018" enable-background="new 0 0 224.221 51.018"
	 xml:space="preserve">
<g>
	<g>
		<path fill="#D3D1DE" d="M211.434,23.299c-1.365,0-2.672,0.236-3.9,0.663c-0.205-7.464-5.832-13.451-12.775-13.451
			c-2.914,0-5.58,1.062-7.732,2.842C185.475,5.72,179.211,0,171.695,0c-8.666,0-15.701,7.613-15.701,17.005
			c0,0.057,0.012,0.115,0.012,0.177c-0.705-0.109-1.412-0.177-2.143-0.177c-8.67,0.001-15.699,7.607-15.699,16.997
			c0,9.398,7.029,17.016,15.699,17.016h57.57c7.062,0,12.787-6.204,12.787-13.863C224.221,29.5,218.496,23.299,211.434,23.299z"/>
	</g>
</g>
<g>
	<g>
		<path fill="#D3D1DE" d="M46.701,33.352c-0.87,0-1.703,0.149-2.486,0.422c-0.131-4.758-3.718-8.573-8.143-8.573
			c-1.858,0-3.557,0.676-4.928,1.811c-0.988-4.865-4.98-8.511-9.771-8.511c-5.525,0-10.008,4.852-10.008,10.838
			c0,0.036,0.008,0.073,0.008,0.114c-0.451-0.07-0.901-0.114-1.366-0.114C4.48,29.34,0,34.188,0,40.173
			c0,5.989,4.48,10.845,10.007,10.845h36.693c4.501,0,8.151-3.954,8.151-8.835C54.852,37.304,51.202,33.352,46.701,33.352z"/>
	</g>
</g>
<g>
	<g>
		<path fill="#D3D1DE" d="M103.958,27.717c-1.148,0-2.246,0.198-3.279,0.559C100.505,22,95.775,16.968,89.941,16.968
			c-2.451,0-4.693,0.892-6.5,2.389c-1.305-6.417-6.57-11.226-12.886-11.226c-7.288,0-13.201,6.399-13.201,14.294
			c0,0.048,0.012,0.097,0.012,0.149c-0.595-0.091-1.188-0.149-1.802-0.149c-7.29,0.001-13.198,6.396-13.198,14.289
			c0,7.9,5.909,14.303,13.198,14.303h48.395c5.936,0,10.75-5.215,10.75-11.653C114.708,32.93,109.894,27.717,103.958,27.717z"/>
	</g>
</g>
</svg>
