<?xml version="1.0" encoding="utf-8"?>
<!-- Generator: Adobe Illustrator 15.1.0, SVG Export Plug-In . SVG Version: 6.00 Build 0)  -->
<!DOCTYPE svg PUBLIC "-//W3C//DTD SVG 1.1//EN" "http://www.w3.org/Graphics/SVG/1.1/DTD/svg11.dtd">
<svg version="1.1"
	 id="Layer_1" xmlns:inkscape="http://www.inkscape.org/namespaces/inkscape" xmlns:dc="http://purl.org/dc/elements/1.1/" xmlns:rdf="http://www.w3.org/1999/02/22-rdf-syntax-ns#" xmlns:sodipodi="http://sodipodi.sourceforge.net/DTD/sodipodi-0.dtd" xmlns:cc="http://creativecommons.org/ns#" xmlns:svg="http://www.w3.org/2000/svg"
	 xmlns="http://www.w3.org/2000/svg" xmlns:xlink="http://www.w3.org/1999/xlink" x="0px" y="0px" width="32.701px"
	 height="16.967px" viewBox="0 0 32.701 16.967" enable-background="new 0 0 32.701 16.967" xml:space="preserve">
<path d="M8.403,16.967L8.403,16.967c-1.324,0-2.408-1.083-2.408-2.407V2.408C5.995,1.084,7.079,0,8.403,0l0,0
	c1.324,0,2.407,1.084,2.407,2.408V14.56C10.81,15.884,9.727,16.967,8.403,16.967z"/>
<path d="M4.186,13.063L4.186,13.063c-0.651,0-1.185-0.534-1.185-1.185v-5.98c0-0.652,0.533-1.185,1.185-1.185l0,0
	c0.651,0,1.185,0.533,1.185,1.185v5.98C5.37,12.53,4.837,13.063,4.186,13.063z"/>
<path d="M24.743,16.967L24.743,16.967c1.323,0,2.406-1.083,2.406-2.407V2.408C27.149,1.084,26.066,0,24.743,0l0,0
	c-1.324,0-2.408,1.084-2.408,2.408V14.56C22.334,15.884,23.418,16.967,24.743,16.967z"/>
<path d="M28.869,13.063L28.869,13.063c0.651,0,1.185-0.534,1.185-1.185v-5.98c0-0.652-0.533-1.185-1.185-1.185l0,0
	c-0.651,0-1.185,0.533-1.185,1.185v5.98C27.684,12.53,28.217,13.063,28.869,13.063z"/>
<rect x="11.189" y="7.41" width="10.774" height="2.178"/>
<path d="M31.592,7.562h-1.146v2.216h1.146c0.613,0,1.109-0.496,1.109-1.108C32.701,8.059,32.205,7.562,31.592,7.562z"/>
<path d="M1.409,7.562h1.146v2.216H1.409C0.796,9.779,0.3,9.283,0.3,8.671C0.3,8.059,0.797,7.562,1.409,7.562z"/>
</svg>
