<?xml version="1.0" encoding="utf-8"?>
<!-- Generator: Adobe Illustrator 15.1.0, SVG Export Plug-In . SVG Version: 6.00 Build 0)  -->
<!DOCTYPE svg PUBLIC "-//W3C//DTD SVG 1.1//EN" "http://www.w3.org/Graphics/SVG/1.1/DTD/svg11.dtd">
<svg version="1.1" id="Layer_1" xmlns="http://www.w3.org/2000/svg" xmlns:xlink="http://www.w3.org/1999/xlink" x="0px" y="0px"
	 width="15.931px" height="30.473px" viewBox="0 0 15.931 30.473" enable-background="new 0 0 15.931 30.473" xml:space="preserve">
<path d="M10.774,10.298c0,0,0.02,0.007,0.059,0.015c0.43,0.498,1.727,1.343,4.808-0.837c0,0-0.608-0.261-1.405-0.452
	c0.517-0.237,1.117-0.767,1.696-1.873c0,0-1.649,0.148-2.563,0.735C13.5,7.42,13.612,6.869,13.69,6.211c0,0-3.287,1.518-3.132,3.39
	c-0.44,0.167-0.839,0.384-1.192,0.648c-0.038-0.046-0.077-0.093-0.117-0.138c1.381-3.406,5.141-8.493,5.141-8.493
	c-2.961,2.2-4.731,5.97-5.549,8.111C8.656,9.586,8.45,9.466,8.22,9.379V8.086c2.239-0.489,2.095-4.909,2.095-4.909
	c-0.617,0.407-1.111,0.794-1.511,1.16c0.129-1.205-0.549-2.925-0.549-2.925c-0.813,1.131-1.041,1.996-1.019,2.63
	c-0.59-0.699-1.155-1.176-1.155-1.176C5.542,6.418,6.548,7.572,7.298,7.948V9.24C7.069,9.252,6.824,9.299,6.563,9.382
	C6.352,7.122,5.655,2.946,3.352,0c0,0,2.088,5.41,2.644,9.075C5.878,9.003,5.764,8.929,5.64,8.865
	C6.053,6.81,2.606,4.702,2.606,4.702C2.608,5.44,2.66,6.066,2.747,6.601C1.81,5.832,0,5.455,0,5.455
	c0.499,1.3,1.096,1.965,1.639,2.295C0.73,7.858,0.022,8.068,0.022,8.068c3.133,2.814,4.68,2.046,5.222,1.55
	C5.287,9.615,5.31,9.61,5.31,9.61c0.011-0.015,0.018-0.03,0.028-0.044c0.124,0.065,0.243,0.136,0.358,0.21
	C5.536,9.868,5.372,9.97,5.201,10.09c0,0,0.479,3.169,0.201,6.319c-0.017,0.109-0.11,0.979-0.158,1.272
	c-0.267,1.282-2.081,4.686-2.081,4.686l0,0c-1.063,2.058-1.967,5.408,1.241,8.105h6.311c0,0,4.715-3.078,0-10.678
	c0,0-2.176-4.264-0.581-8.108c0,0-0.118-0.399-0.388-0.876c0.3-0.225,0.637-0.41,1.01-0.554
	C10.761,10.27,10.766,10.284,10.774,10.298z"/>
</svg>
