<?xml version="1.0" encoding="utf-8"?>
<!-- Generator: Adobe Illustrator 15.1.0, SVG Export Plug-In . SVG Version: 6.00 Build 0)  -->
<!DOCTYPE svg PUBLIC "-//W3C//DTD SVG 1.1//EN" "http://www.w3.org/Graphics/SVG/1.1/DTD/svg11.dtd">
<svg version="1.1" id="Layer_1" xmlns="http://www.w3.org/2000/svg" xmlns:xlink="http://www.w3.org/1999/xlink" x="0px" y="0px"
	 width="26.331px" height="36px" viewBox="0 0 26.331 36" enable-background="new 0 0 26.331 36" xml:space="preserve">
<path d="M26.331,17.767c0.001-0.987-0.813-1.577-1.312-1.836c-0.847-0.444-2.13-0.469-3.149-0.349
	c-2.032,0.236-4.021,1.554-5.685,1.836l-0.351-4.898c3.812-0.076,6.85-0.127,7.174-3.5c0.131-1.354-0.263-2.902-0.611-4.372
	c-0.488-2.051-1.746-4.647-3.951-4.647s-8.354,0-10.56,0S4.424,2.595,3.935,4.646c-0.348,1.47-0.742,3.018-0.611,4.372
	c0.324,3.374,3.363,3.424,7.174,3.5l-0.351,4.897c-1.663-0.282-3.652-1.6-5.685-1.836c-1.02-0.12-2.302-0.095-3.149,0.349
	C0.813,16.189,0,16.779,0,17.766c0.016,0.433,0.27,0.681,0.525,0.962c0.946,1.039,2.874,1.543,4.547,1.837
	c-0.968,1.049-1.291,2.995-1.657,4.949C2.983,27.807,1.788,34.867,1.57,36h0.976l1.373-7.637l0.788,0.002
	c0,0,0.343-2.209,0.541-3.426c0.172-1.206,0.468-2.561,1.004-3.323c0.713-1.01,3.805-0.781,5.382-0.701
	c0.881,0.06,2.209,0.044,3.066,0c1.576-0.08,4.67-0.309,5.382,0.701c0.536,0.762,0.833,2.118,1.005,3.323
	c0.197,1.217,0.54,3.426,0.54,3.426l0.788-0.002L23.786,36h0.976c-0.219-1.133-1.414-8.192-1.846-10.484
	c-0.366-1.955-0.69-3.9-1.658-4.949c1.675-0.294,3.602-0.799,4.549-1.837C26.061,18.447,26.316,18.199,26.331,17.767z"/>
</svg>
