<?xml version="1.0" encoding="utf-8"?>
<!-- Generator: Adobe Illustrator 15.1.0, SVG Export Plug-In . SVG Version: 6.00 Build 0)  -->
<!-- Making a change so the update goes through.. -->
<!DOCTYPE svg PUBLIC "-//W3C//DTD SVG 1.1//EN" "http://www.w3.org/Graphics/SVG/1.1/DTD/svg11.dtd">
<svg version="1.1" id="Layer_1" xmlns="http://www.w3.org/2000/svg" xmlns:xlink="http://www.w3.org/1999/xlink" x="0px" y="0px"
	 width="516.969px" height="417.4px" viewBox="0 0 516.969 417.4" enable-background="new 0 0 516.969 417.4" xml:space="preserve">
<g>
	<g>
		<circle fill="none" cx="223.672" cy="200.375" r="196.221"/>
		<rect x="-94.116" y="0" fill="#211B59" width="600.001" height="417.402"/>
	</g>
	<g>
		<circle fill="none" cx="223.672" cy="200.375" r="196.221"/>
		<g>
			<g>
				<path fill="#96FE91" d="M319.414,203.506c0-14.916-11.227-27.047-25.029-27.047c-0.746,0-1.506,0.04-2.271,0.119
					c-2.311-6.032-8.137-10.209-14.885-10.209c-8.795,0-15.945,7.152-15.945,15.945c0,0.153,0.002,0.309,0.007,0.462
					c-13.666,1.874-24.229,13.629-24.229,27.796c0,5.952,1.893,11.687,5.328,16.423c-6.857,3.152-11.383,9.547-11.383,16.881
					c0,10.461,9.416,18.977,20.992,18.977c5.604,0,10.969-2.055,14.877-5.6c2.656,1.035,5.494,1.518,8.336,1.51
					c0,6.873,0,113.266,0,113.266h6.057c0,0,0-106.834,0-114.094c2.188-0.586,4.305-1.453,6.246-2.662
					c4.301,3.607,9.502,5.561,14.947,5.561c13.799,0,25.029-12.586,25.029-28.057c0-8.438-3.359-16.316-9.094-21.621
					C319.072,208.676,319.414,206.113,319.414,203.506z M410.242,181.301c0-10.081-5.477-19.104-14.191-23.786
					c0.041-0.48,0.064-0.962,0.064-1.444c0-8.793-7.156-15.947-15.947-15.947c-8.793,0-15.945,7.153-15.945,15.947
					c0,1.762,0.297,3.503,0.865,5.162c-4.35,3.92-7.309,9.133-8.428,14.871c-17.068,5.005-28.771,20.476-28.771,38.5
					c0,21.467,16.941,39.004,38.148,40.062c0,8.656,0,117.354,0,117.354h6.057c0,0,0-108.762,0-117.455
					c20.26-2.027,36.129-19.174,36.129-39.961c0-5.788-1.258-11.532-3.658-16.757C408.246,193.118,410.242,187.336,410.242,181.301z
					"/>
			</g>
			<path fill="#C0FEBD" d="M365.992,192.608c-1.248,0-12.291,0.215-17.32,7.762c-4.625,6.937-4.682,13.943-4.682,14.242
				c0,2.113,1.719,3.832,3.834,3.832s3.836-1.719,3.836-3.832c0-0.049,0.092-5.035,3.395-9.984
				c2.354-3.528,8.699-4.334,10.949-4.347c2.113-0.006,3.824-1.72,3.824-3.835C369.828,194.328,368.109,192.608,365.992,192.608z"/>
			<path fill="#C0FEBD" d="M281.85,190.59c-2.029-0.588-4.16,0.599-4.738,2.634c-0.586,2.034,0.601,4.161,2.635,4.742
				c5.763,1.647,12.75,5.18,13.562,7.618c1.57,4.711,0.012,9.653,0,9.688c-0.668,2.008,0.418,4.178,2.424,4.852
				c0.406,0.131,0.814,0.195,1.217,0.195c1.604,0,3.102-1.016,3.639-2.625c0.1-0.297,2.395-7.355,0-14.535
				C298.053,195.568,284.533,191.358,281.85,190.59z"/>
		</g>
	</g>
	<g>
		<path fill="#7A769B" d="M-94.116,8.401c0,0,193-15,204,151s102,194,163,192c61.001-2,157.001-9,156.001,65.998H-94.116V8.401
			L-94.116,8.401z"/>
	</g>
	<g>
		<path fill="#D3D1DE" d="M-94.116,54.417c0,0,138.648-31.358,175,130.985c29.333,131,41.127,166.318,95.5,179
			c91.446,21.326,206.501-28,238.501,52.998H-94.116V54.417L-94.116,54.417z"/>
	</g>
	<g>
		<g>
			<g>
				<path fill="#96FE91" d="M82.67,206.887c1.27-2.914,1.942-6.102,1.942-9.317c0-12.195-9.283-22.115-20.682-22.115
					c-6.659,0-12.824,3.383-16.72,9.109c-11.346,2.39-19.758,13.601-19.758,26.648c0,7.672,2.89,14.938,7.953,20.082
					c2.218,10.295,9.126,18.326,17.755,21.438c0,7.918,0,98.305,0,98.305h4.307c0,0,0-89.535,0-97.197
					c1.18,0.186,2.372,0.309,3.59,0.309c14.568,0,26.422-13.465,26.422-30.014C87.478,217.884,85.819,211.962,82.67,206.887z"/>
			</g>
			<path fill="#C0FEBD" d="M73.076,208.656c-0.283-0.213-7.068-5.191-15.576-1.783c-7.288,2.916-8.044,10.735-7.422,14.468
				c0.23,1.336,1.379,2.281,2.691,2.281c0.148,0,0.299-0.016,0.45-0.037c1.485-0.244,2.488-1.654,2.245-3.139
				c-0.012-0.064-1.019-6.479,4.067-8.505c5.572-2.229,10.057,0.926,10.283,1.098c1.206,0.89,2.907,0.644,3.81-0.562
				C74.528,211.271,74.278,209.562,73.076,208.656z"/>
		</g>
	</g>
	<g>
		<g>
			<g>
				<path fill="#F74958" d="M79.68,276.341C81.285,278.563,79.68,276.341,79.68,276.341v84.17h-6.019
					c-1.262,0-2.251,0.986-2.251,2.25v9.27c0,1.059,0.856,1.914,1.914,1.914h165.161c1.061,0,1.912-0.855,1.912-1.914v-9.27
					c0-1.264-0.984-2.25-2.25-2.25h-6.021v-84.17l0,0 M83.511,276.206c0.559-0.104,1.089-0.277,1.634-0.438"/>
			</g>
			<g>
				<path fill="#FF6974" d="M213.594,365.565v-81.826c0-1.057-0.859-1.914-1.916-1.914h-43.174c-1.058,0-1.916,0.859-1.916,1.914
					v81.826"/>
			</g>
			<g>
				<path fill="#F74958" d="M152.305,274.563c0.086-0.104,1.619-1.654,1.701-1.762c0.055-0.07,0.123-0.135,0.176-0.207
					c0.052,0.072,0.117,0.137,0.174,0.207c0.082,0.105,0.171,0.203,0.257,0.307c0.367,0.439,0.771,0.855,1.213,1.242
					c0.079,0.068,0.15,0.146,0.228,0.213c0.508,0.42,1.062,0.803,1.645,1.146c0.135,0.08,0.271,0.152,0.41,0.229
					c0.557,0.303,1.139,0.578,1.75,0.805c0.068,0.027,0.13,0.061,0.199,0.084c0.668,0.236,1.371,0.414,2.09,0.551
					c0.169,0.029,0.343,0.061,0.518,0.086c0.74,0.115,1.498,0.193,2.276,0.193c3.759,0,7.203-1.395,9.448-3.842
					c0.355-0.383,0.677-0.789,0.959-1.211c0.07,0.086,0.154,0.16,0.227,0.246c0.1,0.115,0.207,0.229,0.311,0.34
					c0.402,0.438,0.836,0.844,1.304,1.227c0.073,0.061,0.142,0.127,0.216,0.188c0.536,0.416,1.111,0.785,1.714,1.127
					c0.146,0.082,0.3,0.158,0.448,0.234c0.582,0.303,1.184,0.576,1.812,0.805c0.061,0.021,0.115,0.047,0.174,0.066
					c0.68,0.232,1.387,0.404,2.107,0.541c0.176,0.035,0.355,0.062,0.53,0.09c0.745,0.113,1.494,0.191,2.267,0.191
					c3.766,0,7.115-1.404,9.199-3.859c0.316-0.375,0.602-0.77,0.852-1.18c0.086,0.098,0.193,0.189,0.285,0.291
					c0.109,0.115,0.225,0.225,0.336,0.338c0.447,0.445,0.926,0.871,1.44,1.26c0.054,0.037,0.099,0.084,0.157,0.125
					c0.561,0.414,1.165,0.781,1.793,1.121c0.152,0.082,0.304,0.16,0.463,0.236c0.611,0.305,1.242,0.584,1.896,0.809
					c0.043,0.016,0.082,0.033,0.123,0.047c0.689,0.232,1.404,0.4,2.129,0.535c0.179,0.033,0.354,0.062,0.535,0.09
					c0.74,0.109,1.486,0.189,2.244,0.189c3.76,0,7.012-1.402,8.928-3.859c0.287-0.361,0.539-0.744,0.756-1.141
					c0.063,0.064,0.146,0.121,0.212,0.188c0.362,0.371,0.764,0.707,1.172,1.043c0.229,0.189,0.448,0.385,0.696,0.562
					c0.396,0.291,0.824,0.545,1.252,0.803c0.312,0.186,0.608,0.377,0.935,0.547c0.354,0.178,0.729,0.326,1.098,0.48
					c0.439,0.189,0.879,0.389,1.342,0.543c0.213,0.07,0.432,0.107,0.645,0.17c1.916,0.852,4.904,0.471,5.465,0.572
					c3.296-0.23,6.076-1.525,7.681-3.748c1.521-2.105,1.867-4.766,0.963-7.484l-17.717-53.035h2.112c1.06,0,1.916-0.858,1.916-1.916
					v-5.401c0-4.07-3.334-7.385-7.434-7.385h-127.5c-4.057,0-7.36,3.315-7.36,7.385v5.401c0,1.06,0.857,1.916,1.913,1.916h2.049
					l-17.72,53.039c-0.901,2.717-0.558,5.375,0.964,7.482c1.605,2.221,4.383,3.52,7.681,3.746c0.557-0.104,3.238,0.344,5.463-0.57
					c0.213-0.061,0.433-0.102,0.643-0.172c0.464-0.154,0.901-0.354,1.349-0.543c0.365-0.154,0.736-0.299,1.087-0.479
					c0.327-0.17,0.627-0.365,0.938-0.553c0.427-0.254,0.851-0.51,1.248-0.795c0.248-0.186,0.474-0.381,0.706-0.574
					c0.407-0.33,0.799-0.666,1.161-1.027c0.065-0.068,0.149-0.123,0.215-0.191c0.216,0.395,0.468,0.775,0.751,1.141
					c1.918,2.455,5.173,3.857,8.932,3.857c0.763,0,1.517-0.078,2.257-0.188c0.18-0.027,0.357-0.055,0.538-0.088
					c0.731-0.141,1.449-0.307,2.145-0.539c0.037-0.012,0.074-0.031,0.111-0.043c0.664-0.229,1.296-0.506,1.916-0.812
					c0.157-0.08,0.311-0.156,0.466-0.236c0.629-0.342,1.237-0.707,1.801-1.119c0.057-0.041,0.102-0.09,0.158-0.129
					c0.516-0.389,0.994-0.812,1.444-1.254c0.115-0.113,0.23-0.23,0.344-0.35c0.095-0.102,0.2-0.189,0.291-0.293
					c0.248,0.416,0.533,0.812,0.854,1.189c2.08,2.455,5.433,3.857,9.197,3.857c0.767,0,1.518-0.08,2.256-0.189
					c0.174-0.025,0.347-0.055,0.521-0.09c0.721-0.137,1.428-0.311,2.104-0.541c0.055-0.021,0.105-0.045,0.163-0.064
					c0.633-0.23,1.233-0.502,1.819-0.809c0.146-0.076,0.291-0.148,0.433-0.23c0.604-0.344,1.18-0.713,1.712-1.131
					c0.074-0.062,0.141-0.123,0.214-0.188c0.468-0.381,0.896-0.791,1.294-1.225c0.105-0.113,0.213-0.225,0.312-0.34
					c0.07-0.086,0.156-0.16,0.223-0.244c0.282,0.424,0.6,0.824,0.951,1.207c2.248,2.443,5.691,3.842,9.449,3.842
					c0.781,0,1.537-0.08,2.279-0.193c0.172-0.025,0.346-0.057,0.519-0.086c0.718-0.139,1.42-0.312,2.087-0.551
					c0.068-0.023,0.131-0.057,0.199-0.082c0.613-0.227,1.193-0.502,1.75-0.807c0.139-0.074,0.277-0.146,0.41-0.229
					C151.246,275.364,151.799,274.983,152.305,274.563"/>
			</g>
			<path fill="#FF6974" d="M145.662,317.981h-2.187v-34.035c0-1.061-0.856-1.916-1.914-1.916H98.387
				c-1.059,0-1.915,0.855-1.915,1.916v34.035h-0.168c-1.059,0-1.914,0.855-1.914,1.916v11.137c0,1.061,0.856,1.918,1.914,1.918
				h49.36c1.057,0,1.914-0.857,1.914-1.918v-11.137C147.578,318.841,146.721,317.981,145.662,317.981z"/>

				<rect x="112.036" y="305.607" transform="matrix(-0.707 0.7072 -0.7072 -0.707 424.0032 439.3816)" fill="#FFDBDE" width="17.899" height="3.829"/>

				<rect x="107.856" y="295.819" transform="matrix(-0.7071 0.7071 -0.7071 -0.7071 409.9209 425.6898)" fill="#FFDBDE" width="17.897" height="3.832"/>
		</g>
	</g>
</g>
<g>
	<g>
		<path fill="#F74958" d="M281.699,330.112c2.77,0,5.188-1.523,6.471-3.775c1.293,2.25,3.723,3.775,6.508,3.775
			c2.77,0,5.188-1.523,6.469-3.775c0.76,1.322,1.91,2.389,3.295,3.047v20.119h-12.646c-0.545,0-0.984,0.441-0.984,0.986v4.43
			c0,0.543,0.439,0.982,0.984,0.982h2.682l8.611,8.607l-8.9,8.898c-0.279,0.279-0.363,0.703-0.213,1.072
			c0.152,0.367,0.51,0.605,0.908,0.605h6.264c0.262,0,0.512-0.104,0.695-0.285l5.811-5.787l5.771,5.785
			c0.188,0.184,0.438,0.287,0.699,0.287h6.303c0.398,0,0.76-0.24,0.908-0.609c0.156-0.367,0.068-0.793-0.213-1.072l-8.939-8.895
			l8.65-8.609h2.641c0.543,0,0.984-0.438,0.984-0.98v-4.432c0-0.543-0.439-0.984-0.984-0.984h-12.605v-20.131
			c1.367-0.656,2.508-1.721,3.262-3.035c1.291,2.25,3.719,3.773,6.506,3.773c2.768,0,5.184-1.521,6.471-3.773
			c1.289,2.25,3.723,3.773,6.508,3.773c4.105,0,7.449-3.348,7.449-7.461v-4.059c0-18.361-14.984-33.293-33.404-33.293
			c-18.441,0-33.445,14.932-33.445,33.293v4.059C274.207,326.763,277.568,330.112,281.699,330.112z M303.531,355.901h8.217
			l-4.098,4.102L303.531,355.901z M308.895,349.503h-2.479v-19.5c0.326,0.053,0.65,0.086,0.998,0.098
			c0.039,0,0.074,0.01,0.117,0.012h0.113c0.002,0,0.006,0,0.012,0c0.004,0,0.008,0,0.01,0h0.17c0.045-0.002,0.086-0.012,0.129-0.018
			c0.318-0.01,0.627-0.045,0.932-0.098v19.506H308.895L308.895,349.503z"/>
		<path fill="#F74958" d="M266.502,354.024v4.168l-4.207,15.656c-0.078,0.293-0.016,0.609,0.17,0.854
			c0.186,0.242,0.475,0.387,0.783,0.387h4.443c0.447,0,0.842-0.297,0.953-0.73l4.047-15.055h5.453l4.051,15.055
			c0.111,0.436,0.5,0.73,0.945,0.73h4.453c0.303,0,0.594-0.143,0.779-0.387c0.184-0.242,0.252-0.561,0.168-0.854l-4.207-15.656
			v-4.301c0-0.545-0.441-0.986-0.986-0.986h-10.652l-4.051-15.018c-0.113-0.428-0.502-0.729-0.949-0.729h-4.447
			c-0.309,0-0.6,0.145-0.783,0.387c-0.188,0.24-0.248,0.561-0.168,0.854L266.502,354.024z"/>
		<path fill="#F74958" d="M331.961,352.905c-0.545,0-0.984,0.441-0.984,0.986v4.301l-4.211,15.656
			c-0.076,0.297-0.018,0.611,0.17,0.854c0.188,0.244,0.479,0.387,0.785,0.387h4.406c0.443,0,0.834-0.295,0.949-0.73l4.049-15.057
			h5.451l4.047,15.057c0.117,0.436,0.508,0.73,0.951,0.73h4.449c0.307,0,0.598-0.143,0.781-0.387c0.188-0.24,0.248-0.559,0.17-0.854
			l-4.209-15.656v-4.166l4.209-15.619c0.078-0.299,0.018-0.615-0.17-0.857c-0.186-0.24-0.477-0.385-0.781-0.385h-4.449
			c-0.441,0-0.834,0.299-0.951,0.727l-4.047,15.018h-10.615V352.905L331.961,352.905z"/>
	</g>
</g>
</svg>
