<?xml version="1.0" encoding="utf-8"?>
<!-- Generator: Adobe Illustrator 15.1.0, SVG Export Plug-In . SVG Version: 6.00 Build 0)  -->
<!DOCTYPE svg PUBLIC "-//W3C//DTD SVG 1.1//EN" "http://www.w3.org/Graphics/SVG/1.1/DTD/svg11.dtd">
<svg version="1.1" id="Layer_1" xmlns="http://www.w3.org/2000/svg" xmlns:xlink="http://www.w3.org/1999/xlink" x="0px" y="0px"
	 width="516.969px" height="417.4px" viewBox="-38.279 -5.095 516.969 417.4" enable-background="new -38.279 -5.095 516.969 417.4"
	 xml:space="preserve">
<g>
	<g>
		<circle fill="none" cx="196.477" cy="195.281" r="196.221"/>
		<rect x="-121.311" y="-5.095" fill="#211B59" width="600" height="417.402"/>
	</g>
	<g>
		<circle fill="none" cx="196.477" cy="195.281" r="196.221"/>
		<g>
			<g>
				<path fill="#96FE91" d="M292.219,198.412c0-14.916-11.227-27.047-25.029-27.047c-0.746,0-1.506,0.04-2.271,0.119
					c-2.312-6.032-8.137-10.209-14.885-10.209c-8.795,0-15.945,7.152-15.945,15.945c0,0.153,0.002,0.309,0.006,0.462
					c-13.666,1.874-24.229,13.629-24.229,27.796c0,5.953,1.893,11.686,5.328,16.424c-6.857,3.152-11.383,9.545-11.383,16.879
					c0,10.461,9.416,18.977,20.992,18.977c5.604,0,10.969-2.055,14.877-5.6c2.656,1.037,5.494,1.518,8.336,1.51
					c0,6.873,0,113.266,0,113.266h6.057c0,0,0-106.834,0-114.094c2.188-0.586,4.305-1.453,6.246-2.662
					c4.301,3.607,9.502,5.561,14.947,5.561c13.799,0,25.029-12.586,25.029-28.057c0-8.438-3.359-16.316-9.094-21.621
					C291.877,203.582,292.219,201.019,292.219,198.412z M383.047,176.207c0-10.081-5.477-19.104-14.191-23.786
					c0.041-0.48,0.064-0.962,0.064-1.444c0-8.793-7.156-15.947-15.947-15.947c-8.793,0-15.945,7.153-15.945,15.947
					c0,1.762,0.297,3.503,0.865,5.162c-4.35,3.92-7.309,9.133-8.428,14.871c-17.068,5.005-28.771,20.476-28.771,38.501
					c0,21.467,16.941,39.004,38.148,40.062c0,8.656,0,117.354,0,117.354h6.057c0,0,0-108.762,0-117.455
					c20.26-2.027,36.129-19.174,36.129-39.961c0-5.789-1.258-11.533-3.658-16.758C381.051,188.024,383.047,182.242,383.047,176.207z
					"/>
			</g>
			<path fill="#C0FEBD" d="M338.797,187.514c-1.248,0-12.291,0.215-17.32,7.762c-4.625,6.937-4.682,13.943-4.682,14.242
				c0,2.113,1.719,3.832,3.834,3.832s3.836-1.719,3.836-3.832c0-0.049,0.092-5.035,3.395-9.984
				c2.354-3.528,8.699-4.334,10.949-4.347c2.113-0.006,3.824-1.72,3.824-3.835C342.633,189.234,340.915,187.514,338.797,187.514z"/>
			<path fill="#C0FEBD" d="M254.655,185.496c-2.029-0.588-4.16,0.599-4.738,2.634c-0.586,2.034,0.6,4.161,2.635,4.742
				c5.762,1.647,12.75,5.18,13.561,7.618c1.57,4.711,0.012,9.654,0,9.688c-0.668,2.008,0.418,4.178,2.424,4.852
				c0.406,0.131,0.814,0.195,1.217,0.195c1.604,0,3.102-1.016,3.639-2.625c0.1-0.297,2.395-7.355,0-14.535
				C270.858,190.474,257.338,186.264,254.655,185.496z"/>
		</g>
	</g>
	<g>
		<path fill="#7A769B" d="M-121.311,3.307c0,0,193-15,204,151c11,166,102,194,163,192s157-9,156,65.998h-523V3.307L-121.311,3.307z"
			/>
	</g>
	<g>
		<path fill="#D3D1DE" d="M-121.311,49.322c0,0,138.648-31.358,175,130.985c29.333,131,41.127,166.318,95.5,179
			c91.447,21.326,206.5-28,238.5,52.998h-509V49.322L-121.311,49.322z"/>
	</g>
	<g>
		<g>
			<g>
				<path fill="#96FE91" d="M55.475,201.793c1.27-2.914,1.942-6.102,1.942-9.317c0-12.195-9.283-22.115-20.682-22.115
					c-6.659,0-12.824,3.383-16.72,9.109c-11.346,2.39-19.758,13.601-19.758,26.647c0,7.672,2.89,14.939,7.953,20.082
					c2.218,10.295,9.126,18.328,17.755,21.438c0,7.918,0,98.305,0,98.305h4.307c0,0,0-89.535,0-97.197
					c1.18,0.186,2.372,0.309,3.59,0.309c14.568,0,26.422-13.465,26.422-30.014C60.283,212.789,58.624,206.867,55.475,201.793z"/>
			</g>
			<path fill="#C0FEBD" d="M45.881,203.562c-0.283-0.213-7.068-5.191-15.576-1.783c-7.288,2.916-8.044,10.736-7.422,14.467
				c0.23,1.336,1.379,2.283,2.691,2.283c0.148,0,0.299-0.016,0.45-0.039c1.485-0.244,2.488-1.654,2.245-3.137
				c-0.012-0.066-1.019-6.479,4.067-8.506c5.572-2.23,10.057,0.926,10.283,1.098c1.206,0.889,2.907,0.643,3.81-0.561
				C47.333,206.177,47.083,204.467,45.881,203.562z"/>
		</g>
	</g>
	<g>
		<g>
			<g>
				<path fill="#F74958" d="M52.485,271.246C54.09,273.469,52.485,271.246,52.485,271.246v84.17h-6.019
					c-1.262,0-2.251,0.988-2.251,2.25v9.271c0,1.057,0.856,1.914,1.914,1.914h165.16c1.061,0,1.912-0.857,1.912-1.914v-9.271
					c0-1.262-0.984-2.25-2.25-2.25h-6.02v-84.17l0,0 M56.316,271.113c0.559-0.104,1.089-0.279,1.634-0.438"/>
			</g>
			<g>
				<path fill="#FF6974" d="M186.399,360.472v-81.826c0-1.057-0.859-1.914-1.916-1.914h-43.174c-1.058,0-1.916,0.859-1.916,1.914
					v81.826"/>
			</g>
			<g>
				<path fill="#F74958" d="M125.11,269.47c0.086-0.104,1.619-1.654,1.701-1.762c0.055-0.07,0.123-0.135,0.176-0.207
					c0.052,0.072,0.117,0.137,0.174,0.207c0.082,0.105,0.171,0.203,0.257,0.307c0.367,0.438,0.771,0.854,1.213,1.242
					c0.079,0.068,0.15,0.146,0.228,0.213c0.508,0.42,1.062,0.803,1.645,1.146c0.135,0.08,0.271,0.152,0.41,0.229
					c0.557,0.303,1.139,0.578,1.75,0.805c0.068,0.027,0.13,0.059,0.199,0.084c0.668,0.236,1.371,0.414,2.09,0.549
					c0.169,0.031,0.343,0.061,0.518,0.086c0.74,0.117,1.498,0.195,2.276,0.195c3.759,0,7.203-1.396,9.448-3.842
					c0.355-0.383,0.677-0.789,0.959-1.211c0.07,0.086,0.154,0.16,0.227,0.246c0.1,0.115,0.207,0.229,0.311,0.34
					c0.402,0.436,0.836,0.844,1.304,1.225c0.073,0.062,0.142,0.127,0.216,0.189c0.536,0.416,1.111,0.785,1.714,1.127
					c0.146,0.082,0.3,0.158,0.448,0.234c0.582,0.303,1.184,0.576,1.812,0.805c0.061,0.021,0.115,0.047,0.174,0.066
					c0.68,0.232,1.387,0.404,2.107,0.541c0.176,0.035,0.355,0.062,0.53,0.09c0.745,0.113,1.494,0.191,2.267,0.191
					c3.766,0,7.115-1.404,9.199-3.859c0.316-0.375,0.602-0.77,0.852-1.18c0.086,0.098,0.193,0.189,0.285,0.291
					c0.109,0.115,0.225,0.225,0.336,0.338c0.447,0.445,0.926,0.871,1.44,1.26c0.054,0.037,0.099,0.084,0.157,0.125
					c0.561,0.414,1.165,0.781,1.793,1.121c0.152,0.082,0.304,0.16,0.463,0.236c0.611,0.305,1.242,0.584,1.896,0.809
					c0.043,0.016,0.082,0.033,0.123,0.047c0.689,0.232,1.404,0.4,2.129,0.535c0.179,0.033,0.354,0.062,0.535,0.09
					c0.74,0.109,1.486,0.189,2.244,0.189c3.76,0,7.012-1.402,8.928-3.859c0.287-0.361,0.539-0.744,0.756-1.141
					c0.064,0.064,0.146,0.121,0.212,0.188c0.362,0.371,0.764,0.707,1.172,1.043c0.229,0.189,0.448,0.385,0.696,0.562
					c0.396,0.291,0.824,0.545,1.252,0.803c0.312,0.186,0.609,0.377,0.935,0.547c0.354,0.178,0.728,0.326,1.097,0.48
					c0.44,0.189,0.879,0.389,1.342,0.543c0.213,0.07,0.432,0.107,0.645,0.17c1.916,0.852,4.904,0.471,5.465,0.572
					c3.295-0.23,6.076-1.525,7.68-3.748c1.521-2.105,1.867-4.766,0.963-7.484l-17.717-53.035h2.112c1.06,0,1.916-0.859,1.916-1.916
					v-5.402c0-4.07-3.333-7.385-7.433-7.385h-127.5c-4.057,0-7.36,3.315-7.36,7.385v5.402c0,1.059,0.857,1.916,1.913,1.916h2.049
					l-17.72,53.039c-0.901,2.717-0.558,5.375,0.964,7.482c1.605,2.221,4.383,3.52,7.681,3.746c0.557-0.104,3.238,0.344,5.463-0.57
					c0.213-0.061,0.433-0.102,0.643-0.172c0.464-0.154,0.901-0.354,1.349-0.543c0.365-0.154,0.736-0.299,1.087-0.479
					c0.327-0.17,0.627-0.365,0.938-0.553c0.427-0.254,0.851-0.508,1.248-0.795c0.248-0.184,0.474-0.379,0.706-0.574
					c0.407-0.33,0.799-0.666,1.161-1.027c0.065-0.068,0.149-0.123,0.215-0.191c0.216,0.395,0.468,0.775,0.751,1.141
					c1.918,2.455,5.173,3.857,8.932,3.857c0.763,0,1.517-0.078,2.257-0.188c0.18-0.027,0.357-0.055,0.538-0.088
					c0.731-0.139,1.449-0.305,2.145-0.539c0.037-0.012,0.074-0.031,0.111-0.043c0.664-0.227,1.296-0.506,1.916-0.811
					c0.157-0.08,0.311-0.158,0.466-0.238c0.629-0.34,1.237-0.707,1.801-1.119c0.057-0.041,0.102-0.09,0.158-0.129
					c0.516-0.387,0.994-0.811,1.444-1.254c0.115-0.113,0.23-0.229,0.344-0.348c0.095-0.102,0.2-0.191,0.291-0.293
					c0.248,0.416,0.533,0.811,0.854,1.188c2.08,2.455,5.433,3.859,9.197,3.859c0.767,0,1.518-0.08,2.256-0.191
					c0.174-0.025,0.347-0.053,0.521-0.09c0.721-0.135,1.428-0.309,2.104-0.541c0.055-0.02,0.105-0.045,0.163-0.064
					c0.633-0.23,1.233-0.502,1.819-0.809c0.146-0.076,0.291-0.148,0.433-0.23c0.604-0.344,1.18-0.713,1.712-1.131
					c0.074-0.062,0.141-0.123,0.214-0.188c0.468-0.379,0.896-0.791,1.294-1.223c0.105-0.113,0.213-0.225,0.312-0.34
					c0.07-0.086,0.156-0.16,0.223-0.244c0.282,0.424,0.6,0.824,0.951,1.207c2.248,2.443,5.691,3.842,9.449,3.842
					c0.781,0,1.537-0.08,2.279-0.195c0.172-0.025,0.346-0.055,0.519-0.086c0.718-0.137,1.42-0.312,2.087-0.549
					c0.068-0.025,0.131-0.057,0.199-0.082c0.613-0.227,1.193-0.502,1.75-0.807c0.139-0.074,0.277-0.148,0.41-0.229
					C124.051,270.271,124.604,269.89,125.11,269.47"/>
			</g>
			<path fill="#FF6974" d="M118.467,312.888h-2.187v-34.035c0-1.061-0.856-1.916-1.914-1.916H71.192
				c-1.059,0-1.915,0.855-1.915,1.916v34.035h-0.168c-1.059,0-1.914,0.855-1.914,1.916v11.137c0,1.059,0.856,1.918,1.914,1.918
				h49.36c1.057,0,1.914-0.859,1.914-1.918v-11.137C120.383,313.746,119.526,312.888,118.467,312.888z"/>
			
				<rect x="84.84" y="300.521" transform="matrix(0.707 -0.7072 0.7072 0.707 -186.4013 154.9335)" fill="#FFDBDE" width="17.899" height="3.83"/>
			
				<rect x="80.666" y="290.722" transform="matrix(0.7071 -0.7071 0.7071 0.7071 -180.6818 149.0842)" fill="#FFDBDE" width="17.898" height="3.833"/>
		</g>
	</g>
</g>
</svg>
