<?xml version="1.0" encoding="utf-8"?>
<!-- Generator: Adobe Illustrator 15.1.0, SVG Export Plug-In . SVG Version: 6.00 Build 0)  -->
<!DOCTYPE svg PUBLIC "-//W3C//DTD SVG 1.1//EN" "http://www.w3.org/Graphics/SVG/1.1/DTD/svg11.dtd">
<svg version="1.1" id="Layer_1" xmlns="http://www.w3.org/2000/svg" xmlns:xlink="http://www.w3.org/1999/xlink" x="0px" y="0px"
	 width="392.442px" height="392.441px" viewBox="103.779 12.481 392.442 392.441"
	 enable-background="new 103.779 12.481 392.442 392.441" xml:space="preserve">
<g>
	<g>
		<defs>
			<circle id="SVGID_1_" cx="300" cy="208.702" r="196.221"/>
		</defs>
		<clipPath id="SVGID_2_">
			<use xlink:href="#SVGID_1_"  overflow="visible"/>
		</clipPath>
		<rect x="-17.787" y="8.326" clip-path="url(#SVGID_2_)" fill="#211B59" width="600" height="417.403"/>
	</g>
	<g>
		<defs>
			<circle id="SVGID_3_" cx="300" cy="208.702" r="196.221"/>
		</defs>
		<clipPath id="SVGID_4_">
			<use xlink:href="#SVGID_3_"  overflow="visible"/>
		</clipPath>
		<g clip-path="url(#SVGID_4_)">
			<g>
				<path fill="#96FE91" d="M395.742,211.833c0-14.915-11.226-27.047-25.029-27.047c-0.746,0-1.506,0.04-2.271,0.119
					c-2.312-6.032-8.136-10.209-14.884-10.209c-8.795,0-15.946,7.152-15.946,15.945c0,0.154,0.002,0.309,0.006,0.462
					c-13.666,1.874-24.229,13.629-24.229,27.796c0,5.954,1.892,11.687,5.328,16.425c-6.858,3.152-11.383,9.545-11.383,16.879
					c0,10.461,9.416,18.975,20.992,18.975c5.604,0,10.969-2.053,14.877-5.598c2.656,1.037,5.494,1.516,8.336,1.51
					c0,6.873,0,113.264,0,113.264h6.057c0,0,0-106.833,0-114.094c2.187-0.584,4.304-1.453,6.246-2.662
					c4.301,3.609,9.502,5.562,14.947,5.562c13.799,0,25.029-12.586,25.029-28.057c0-8.438-3.359-16.316-9.093-21.622
					C395.4,217.004,395.742,214.441,395.742,211.833z M486.57,189.629c0-10.081-5.476-19.104-14.191-23.786
					c0.041-0.481,0.064-0.962,0.064-1.445c0-8.793-7.156-15.947-15.947-15.947c-8.793,0-15.945,7.153-15.945,15.947
					c0,1.762,0.297,3.503,0.865,5.162c-4.35,3.92-7.309,9.133-8.428,14.871c-17.068,5.005-28.771,20.476-28.771,38.502
					c0,21.466,16.941,39.003,38.148,40.063c0,8.656,0,117.353,0,117.353h6.057c0,0,0-108.761,0-117.456
					c20.26-2.027,36.129-19.173,36.129-39.96c0-5.79-1.258-11.533-3.658-16.758C484.574,201.445,486.57,195.664,486.57,189.629z"/>
			</g>
			<path fill="#C0FEBD" d="M442.32,200.935c-1.248,0-12.291,0.215-17.32,7.762c-4.625,6.938-4.682,13.943-4.682,14.241
				c0,2.115,1.719,3.833,3.834,3.833c2.116,0,3.836-1.718,3.836-3.833c0-0.048,0.092-5.035,3.395-9.984
				c2.353-3.527,8.699-4.334,10.949-4.347c2.113-0.006,3.824-1.72,3.824-3.835C446.156,202.655,444.438,200.935,442.32,200.935z"/>
			<path fill="#C0FEBD" d="M358.178,198.918c-2.03-0.588-4.16,0.598-4.739,2.634c-0.585,2.034,0.6,4.161,2.635,4.742
				c5.762,1.647,12.75,5.18,13.561,7.617c1.57,4.711,0.011,9.655,0,9.688c-0.668,2.007,0.418,4.177,2.424,4.851
				c0.406,0.131,0.814,0.195,1.216,0.195c1.604,0,3.102-1.014,3.639-2.625c0.1-0.297,2.395-7.354,0-14.535
				C374.381,203.895,360.861,199.685,358.178,198.918z"/>
		</g>
	</g>
	<g>
		<defs>
			<circle id="SVGID_5_" cx="300" cy="208.702" r="196.221"/>
		</defs>
		<clipPath id="SVGID_6_">
			<use xlink:href="#SVGID_5_"  overflow="visible"/>
		</clipPath>
		<path clip-path="url(#SVGID_6_)" fill="#7A769B" d="M-17.787,16.728c0,0,193-15,204,151s102,194,163,192s157-9,156,65.999h-523
			V16.728L-17.787,16.728z"/>
	</g>
	<g>
		<defs>
			<circle id="SVGID_7_" cx="300" cy="208.702" r="196.221"/>
		</defs>
		<clipPath id="SVGID_8_">
			<use xlink:href="#SVGID_7_"  overflow="visible"/>
		</clipPath>
		<path clip-path="url(#SVGID_8_)" fill="#D3D1DE" d="M-17.787,62.743c0,0,138.648-31.358,175,130.985
			c29.333,131,41.128,166.319,95.5,179c91.447,21.326,206.5-28,238.5,52.999h-509V62.743L-17.787,62.743z"/>
	</g>
	<g>
		<defs>
			<circle id="SVGID_9_" cx="300" cy="208.702" r="196.221"/>
		</defs>
		<clipPath id="SVGID_10_">
			<use xlink:href="#SVGID_9_"  overflow="visible"/>
		</clipPath>
		<g clip-path="url(#SVGID_10_)">
			<g>
				<path fill="#96FE91" d="M158.998,215.215c1.27-2.914,1.942-6.103,1.942-9.318c0-12.195-9.283-22.115-20.682-22.115
					c-6.659,0-12.824,3.383-16.72,9.109c-11.346,2.39-19.758,13.601-19.758,26.648c0,7.672,2.89,14.938,7.953,20.082
					c2.218,10.295,9.126,18.328,17.755,21.436c0,7.919,0,98.306,0,98.306h4.307c0,0,0-89.536,0-97.198
					c1.18,0.186,2.372,0.309,3.59,0.309c14.568,0,26.422-13.465,26.422-30.014C163.806,226.211,162.147,220.288,158.998,215.215z"/>
			</g>
			<path fill="#C0FEBD" d="M149.405,216.983c-0.283-0.212-7.068-5.191-15.576-1.783c-7.288,2.916-8.044,10.737-7.422,14.467
				c0.23,1.336,1.379,2.283,2.691,2.283c0.148,0,0.299-0.016,0.45-0.039c1.485-0.244,2.488-1.654,2.245-3.137
				c-0.012-0.066-1.019-6.477,4.067-8.505c5.572-2.231,10.057,0.926,10.283,1.097c1.206,0.889,2.907,0.643,3.81-0.56
				C150.856,219.598,150.607,217.888,149.405,216.983z"/>
		</g>
	</g>
	<g>
		<defs>
			<circle id="SVGID_11_" cx="300" cy="208.702" r="196.221"/>
		</defs>
		<clipPath id="SVGID_12_">
			<use xlink:href="#SVGID_11_"  overflow="visible"/>
		</clipPath>
		<g clip-path="url(#SVGID_12_)">
			<g>
				<path fill="#F74958" d="M156.009,284.668C157.614,286.889,156.009,284.668,156.009,284.668v84.17h-6.019
					c-1.262,0-2.251,0.988-2.251,2.25v9.271c0,1.057,0.856,1.914,1.914,1.914h165.16c1.061,0,1.913-0.857,1.913-1.914v-9.271
					c0-1.262-0.985-2.25-2.25-2.25h-6.021v-84.17l0,0 M159.84,284.534c0.559-0.104,1.089-0.279,1.634-0.437"/>
			</g>
			<g>
				<path fill="#FF6974" d="M289.922,373.893v-81.826c0-1.056-0.859-1.914-1.916-1.914h-43.173c-1.058,0-1.917,0.86-1.917,1.914
					v81.826"/>
			</g>
			<g>
				<path fill="#F74958" d="M228.634,282.891c0.085-0.102,1.618-1.653,1.7-1.76c0.055-0.072,0.123-0.135,0.176-0.207
					c0.052,0.072,0.118,0.135,0.174,0.207c0.082,0.104,0.171,0.203,0.257,0.305c0.367,0.438,0.77,0.855,1.213,1.243
					c0.079,0.069,0.15,0.146,0.228,0.213c0.507,0.42,1.062,0.802,1.644,1.146c0.134,0.08,0.271,0.153,0.41,0.228
					c0.557,0.304,1.138,0.579,1.75,0.806c0.069,0.026,0.13,0.059,0.199,0.083c0.668,0.236,1.372,0.414,2.09,0.55
					c0.169,0.031,0.343,0.06,0.518,0.086c0.74,0.116,1.497,0.195,2.276,0.195c3.759,0,7.203-1.396,9.449-3.842
					c0.355-0.383,0.676-0.79,0.958-1.212c0.07,0.087,0.155,0.161,0.227,0.247c0.1,0.115,0.207,0.229,0.311,0.34
					c0.402,0.436,0.835,0.843,1.303,1.225c0.074,0.062,0.141,0.127,0.216,0.188c0.536,0.416,1.111,0.787,1.714,1.127
					c0.146,0.083,0.299,0.16,0.448,0.236c0.582,0.301,1.183,0.576,1.813,0.804c0.06,0.021,0.115,0.046,0.174,0.067
					c0.679,0.231,1.386,0.404,2.107,0.541c0.176,0.035,0.355,0.062,0.53,0.09c0.745,0.112,1.494,0.19,2.266,0.19
					c3.766,0,7.116-1.403,9.2-3.858c0.317-0.375,0.602-0.771,0.851-1.18c0.087,0.098,0.194,0.189,0.285,0.29
					c0.11,0.116,0.225,0.226,0.336,0.339c0.448,0.444,0.927,0.87,1.441,1.26c0.053,0.037,0.099,0.084,0.157,0.125
					c0.561,0.414,1.165,0.781,1.793,1.121c0.153,0.082,0.304,0.16,0.463,0.236c0.612,0.305,1.242,0.583,1.896,0.809
					c0.043,0.015,0.082,0.033,0.124,0.047c0.689,0.231,1.404,0.4,2.128,0.535c0.179,0.033,0.354,0.062,0.536,0.09
					c0.74,0.109,1.486,0.188,2.244,0.188c3.76,0,7.012-1.402,8.928-3.859c0.287-0.362,0.539-0.744,0.756-1.14
					c0.064,0.065,0.145,0.121,0.211,0.187c0.363,0.371,0.764,0.707,1.172,1.043c0.23,0.189,0.449,0.384,0.697,0.562
					c0.396,0.291,0.824,0.545,1.252,0.803c0.311,0.186,0.609,0.377,0.934,0.547c0.355,0.178,0.727,0.326,1.096,0.481
					c0.441,0.19,0.879,0.388,1.342,0.542c0.213,0.07,0.432,0.109,0.645,0.171c1.916,0.851,4.904,0.47,5.464,0.571
					c3.295-0.229,6.076-1.525,7.68-3.747c1.521-2.106,1.867-4.765,0.963-7.485l-17.717-53.035h2.113
					c1.059,0,1.916-0.859,1.916-1.916v-5.402c0-4.07-3.333-7.385-7.432-7.385h-127.5c-4.057,0-7.36,3.314-7.36,7.385v5.402
					c0,1.059,0.857,1.916,1.913,1.916h2.049l-17.72,53.039c-0.901,2.717-0.558,5.375,0.964,7.482
					c1.605,2.221,4.383,3.52,7.681,3.747c0.557-0.103,3.238,0.344,5.463-0.571c0.213-0.061,0.433-0.102,0.643-0.171
					c0.464-0.155,0.901-0.353,1.349-0.543c0.365-0.155,0.736-0.3,1.087-0.478c0.327-0.17,0.627-0.366,0.938-0.553
					c0.427-0.255,0.851-0.509,1.248-0.796c0.248-0.183,0.474-0.379,0.706-0.573c0.407-0.33,0.799-0.666,1.161-1.029
					c0.065-0.067,0.149-0.123,0.215-0.191c0.216,0.395,0.468,0.776,0.751,1.141c1.918,2.455,5.173,3.858,8.932,3.858
					c0.763,0,1.517-0.079,2.257-0.188c0.18-0.027,0.357-0.055,0.538-0.088c0.731-0.138,1.449-0.305,2.145-0.539
					c0.037-0.012,0.074-0.032,0.111-0.043c0.664-0.226,1.296-0.506,1.916-0.811c0.157-0.079,0.311-0.158,0.466-0.238
					c0.629-0.339,1.237-0.707,1.801-1.119c0.057-0.041,0.102-0.09,0.158-0.129c0.516-0.387,0.994-0.81,1.444-1.254
					c0.115-0.113,0.23-0.229,0.344-0.348c0.095-0.1,0.2-0.191,0.291-0.292c0.248,0.415,0.533,0.81,0.854,1.188
					c2.08,2.455,5.433,3.858,9.197,3.858c0.767,0,1.518-0.079,2.256-0.19c0.174-0.027,0.347-0.053,0.522-0.09
					c0.72-0.135,1.427-0.309,2.103-0.541c0.055-0.021,0.105-0.045,0.163-0.066c0.633-0.229,1.234-0.501,1.819-0.807
					c0.146-0.076,0.291-0.149,0.433-0.232c0.604-0.342,1.18-0.712,1.712-1.131c0.074-0.061,0.14-0.123,0.214-0.186
					c0.467-0.379,0.895-0.791,1.294-1.224c0.105-0.112,0.213-0.224,0.313-0.34c0.07-0.085,0.155-0.16,0.222-0.244
					c0.282,0.424,0.6,0.825,0.951,1.207c2.248,2.444,5.692,3.842,9.45,3.842c0.781,0,1.536-0.079,2.279-0.194
					c0.172-0.027,0.345-0.055,0.518-0.086c0.718-0.138,1.42-0.313,2.087-0.55c0.069-0.024,0.131-0.056,0.199-0.082
					c0.614-0.227,1.193-0.502,1.751-0.806c0.138-0.074,0.276-0.148,0.41-0.229C227.574,283.693,228.127,283.312,228.634,282.891"/>
			</g>
			<path fill="#FF6974" d="M221.991,326.309h-2.187v-34.034c0-1.06-0.856-1.917-1.914-1.917h-43.174
				c-1.059,0-1.915,0.857-1.915,1.917v34.034h-0.168c-1.059,0-1.914,0.857-1.914,1.916v11.137c0,1.059,0.856,1.918,1.914,1.918
				h49.359c1.057,0,1.915-0.859,1.915-1.918v-11.137C223.907,327.167,223.049,326.309,221.991,326.309z"/>
			
				<rect x="188.359" y="313.945" transform="matrix(-0.707 0.7072 -0.7072 -0.707 560.1875 399.6338)" fill="#FFDBDE" width="17.9" height="3.831"/>
			
				<rect x="184.185" y="304.144" transform="matrix(-0.7071 0.7071 -0.7071 -0.7071 546.1176 385.9108)" fill="#FFDBDE" width="17.897" height="3.832"/>
		</g>
	</g>
	<g>
		<defs>
			<circle id="SVGID_13_" cx="300" cy="208.702" r="196.221"/>
		</defs>
		<clipPath id="SVGID_14_">
			<use xlink:href="#SVGID_13_"  overflow="visible"/>
		</clipPath>
		<g clip-path="url(#SVGID_14_)">
			<path fill="#F74958" d="M342.15,337.499c2.771,0,5.188-1.523,6.471-3.775c1.293,2.25,3.723,3.775,6.508,3.775
				c2.769,0,5.187-1.523,6.469-3.775c0.759,1.322,1.91,2.389,3.295,3.047v20.119h-12.647c-0.545,0-0.984,0.441-0.984,0.986v4.43
				c0,0.543,0.439,0.982,0.984,0.982h2.682l8.611,8.608l-8.9,8.899c-0.28,0.279-0.364,0.703-0.213,1.072
				c0.152,0.367,0.51,0.605,0.908,0.605h6.264c0.261,0,0.511-0.104,0.695-0.285l5.811-5.787l5.771,5.785
				c0.188,0.184,0.438,0.287,0.699,0.287h6.303c0.398,0,0.76-0.24,0.908-0.609c0.156-0.367,0.069-0.793-0.213-1.072l-8.939-8.896
				l8.65-8.608h2.641c0.543,0,0.984-0.439,0.984-0.982v-4.43c0-0.543-0.439-0.986-0.984-0.986h-12.606V336.76
				c1.368-0.658,2.508-1.721,3.262-3.037c1.291,2.25,3.719,3.775,6.506,3.775c2.768,0,5.184-1.523,6.471-3.775
				c1.289,2.25,3.722,3.775,6.508,3.775c4.105,0,7.449-3.349,7.449-7.461v-4.06c0-18.36-14.985-33.293-33.405-33.293
				c-18.441,0-33.445,14.933-33.445,33.293v4.06C334.658,334.15,338.02,337.499,342.15,337.499z M363.982,363.288h8.217
				l-4.097,4.102L363.982,363.288z M369.346,356.889h-2.479v-19.5c0.326,0.053,0.651,0.086,0.998,0.098
				c0.039,0,0.074,0.01,0.117,0.012h0.114c0.002,0,0.006,0,0.011,0c0.004,0,0.008,0,0.01,0h0.17
				c0.045-0.002,0.086-0.012,0.129-0.018c0.318-0.01,0.627-0.045,0.932-0.096v19.504H369.346L369.346,356.889z"/>
			<path fill="#F74958" d="M326.953,361.411v4.168l-4.207,15.657c-0.078,0.293-0.016,0.609,0.17,0.854
				c0.186,0.242,0.475,0.385,0.783,0.385h4.444c0.447,0,0.841-0.297,0.953-0.73l4.047-15.055h5.453l4.05,15.055
				c0.112,0.435,0.5,0.73,0.946,0.73h4.453c0.303,0,0.594-0.141,0.779-0.385c0.185-0.244,0.252-0.562,0.168-0.854l-4.207-15.657
				v-4.3c0-0.545-0.441-0.987-0.986-0.987h-10.653l-4.05-15.017c-0.114-0.428-0.502-0.728-0.95-0.728h-4.447
				c-0.308,0-0.599,0.144-0.783,0.386c-0.188,0.241-0.248,0.56-0.168,0.854L326.953,361.411z"/>
			<path fill="#F74958" d="M392.412,360.292c-0.545,0-0.984,0.442-0.984,0.987v4.3l-4.211,15.657
				c-0.076,0.296-0.018,0.611,0.17,0.854c0.188,0.244,0.478,0.385,0.785,0.385h4.406c0.443,0,0.834-0.295,0.949-0.729l4.049-15.058
				h5.451l4.047,15.058c0.117,0.434,0.508,0.729,0.951,0.729h4.45c0.306,0,0.597-0.141,0.781-0.385
				c0.187-0.242,0.248-0.559,0.17-0.854l-4.209-15.657v-4.166l4.209-15.619c0.078-0.299,0.017-0.615-0.17-0.857
				c-0.186-0.24-0.477-0.385-0.781-0.385h-4.45c-0.441,0-0.834,0.299-0.951,0.727l-4.047,15.018h-10.615V360.292L392.412,360.292z"
				/>
		</g>
	</g>
</g>
</svg>
