<?xml version="1.0" encoding="utf-8"?>
<!-- Generator: Adobe Illustrator 15.1.0, SVG Export Plug-In . SVG Version: 6.00 Build 0)  -->
<!DOCTYPE svg PUBLIC "-//W3C//DTD SVG 1.1//EN" "http://www.w3.org/Graphics/SVG/1.1/DTD/svg11.dtd">
<svg version="1.1" id="Layer_1" xmlns="http://www.w3.org/2000/svg" xmlns:xlink="http://www.w3.org/1999/xlink" x="0px" y="0px"
	 width="46.637px" height="36px" viewBox="0 0 46.637 36" enable-background="new 0 0 46.637 36" xml:space="preserve">
<g>
	<path d="M29.764,0c2.617,0,4.984,1.058,6.682,2.756c1.56,1.559,2.562,3.647,2.757,5.986c1.81,0.557,3.397,1.643,4.538,3.062
		c1.337,1.615,2.145,3.703,2.145,5.958c0,2.617-1.059,4.984-2.757,6.682c-1.726,1.699-4.093,2.756-6.683,2.756h-5.568v6.571h3.062
		h0.028h11.555c0.612,0,1.114,0.501,1.114,1.114c0,0.612-0.502,1.113-1.114,1.113H1.114C0.501,36,0,35.499,0,34.887
		c0-0.613,0.501-1.114,1.114-1.114H12v-4.371H8.13c-2.032,0-3.87-0.835-5.207-2.144c-1.336-1.337-2.171-3.174-2.171-5.207
		c0-1.754,0.64-3.396,1.67-4.649c0.863-1.058,2.032-1.893,3.369-2.339c0.167-1.726,0.947-3.285,2.116-4.455
		c1.336-1.336,3.174-2.172,5.207-2.172c1.03,0,2.004,0.223,2.896,0.613c0.612,0.25,1.169,0.584,1.698,1.002
		c0.808-0.585,1.699-1.002,2.645-1.309c0.167-2.339,1.197-4.427,2.756-5.986C24.809,1.058,27.174,0,29.764,0z M25.588,33.772h0.027
		h3.062v-6.571H23.36c-0.613,0.641-1.364,1.143-2.172,1.532c-0.919,0.417-1.977,0.668-3.062,0.668h-3.898v4.371H25.588z
		 M14.228,29.401v-4.622l1.643-0.975c-0.473-0.557-0.891-1.169-1.225-1.837l-1.336,0.779l-2.339-2.311
		c-0.417-0.445-1.114-0.445-1.559,0c-0.417,0.418-0.417,1.114,0,1.559L12,24.584v4.817H14.228z M30.877,27.201v-6.013l4.232-2.45
		c0.529-0.306,0.696-0.975,0.391-1.503c-0.307-0.529-0.975-0.696-1.504-0.39l-4.037,2.311l-3.285-3.285
		c-0.445-0.445-1.143-0.445-1.588,0c-0.417,0.417-0.417,1.142,0,1.559l3.592,3.564v6.208H30.877z"/>
</g>
<text transform="matrix(1 0 0 1 6.6875 453.6406)" font-family="'HelveticaNeue-Bold'" font-size="139.2111">Created by Deemak Daksina S</text>
<text transform="matrix(1 0 0 1 6.6875 592.8438)" font-family="'HelveticaNeue-Bold'" font-size="139.2111">from the Noun Project</text>
</svg>
