<?xml version="1.0" encoding="utf-8"?>
<!-- Generator: Adobe Illustrator 15.1.0, SVG Export Plug-In . SVG Version: 6.00 Build 0)  -->
<!DOCTYPE svg PUBLIC "-//W3C//DTD SVG 1.1//EN" "http://www.w3.org/Graphics/SVG/1.1/DTD/svg11.dtd">
<svg version="1.1" id="Layer_1" xmlns="http://www.w3.org/2000/svg" xmlns:xlink="http://www.w3.org/1999/xlink" x="0px" y="0px"
	 width="547.68px" height="547.68px" viewBox="0 0 547.68 547.68" enable-background="new 0 0 547.68 547.68" xml:space="preserve">
<g>
	<path d="M237.98,475.959c56.072,0,107.58-19.559,148.656-52.158l116.708,116.707c5.216,4.564,11.735,7.172,18.256,7.172
		c6.52,0,13.04-2.607,18.256-7.824c10.432-10.432,10.432-26.732,0-37.164L423.148,386.636c32.6-41.076,52.16-92.584,52.16-148.656
		C475.96,106.928,369.032,0,237.98,0S0,106.928,0,237.98C0,369.032,106.929,475.959,237.98,475.959z M237.98,52.16
		c102.364,0,185.819,83.456,185.819,185.82S340.345,423.801,237.98,423.801S52.16,340.344,52.16,237.98S135.616,52.16,237.98,52.16z
		"/>
	<path d="M237.98,404.24c7.172,0,13.04-5.868,13.04-13.04s-5.868-13.04-13.04-13.04c-77.588,0-140.18-63.244-140.18-140.18
		c0-77.588,62.592-140.18,140.18-140.18c7.172,0,13.04-5.868,13.04-13.04s-5.868-13.04-13.04-13.04
		c-91.933,0-166.26,74.328-166.26,166.26C71.721,329.26,146.048,404.24,237.98,404.24z"/>
</g>
</svg>
