<?xml version="1.0" encoding="utf-8"?>
<!-- Generator: Adobe Illustrator 15.1.0, SVG Export Plug-In . SVG Version: 6.00 Build 0)  -->
<!DOCTYPE svg PUBLIC "-//W3C//DTD SVG 1.1//EN" "http://www.w3.org/Graphics/SVG/1.1/DTD/svg11.dtd">
<svg version="1.1" id="Layer_1" xmlns="http://www.w3.org/2000/svg" xmlns:xlink="http://www.w3.org/1999/xlink" x="0px" y="0px"
	 width="652px" height="506.415px" viewBox="0 0 652 506.415" enable-background="new 0 0 652 506.415" xml:space="preserve">
<g>
	<path d="M616.01,506.415H35.99c-19.84,0-35.99-16.137-35.99-35.99V288.1c0-19.841,16.144-35.991,35.99-35.991h580.02
		c19.847,0,35.99,16.15,35.99,35.991v182.331C652,490.278,635.856,506.415,616.01,506.415z M35.99,276.103
		c-6.617,0-11.997,5.386-11.997,11.997v182.331c0,6.625,5.38,11.997,11.997,11.997h580.02c6.617,0,11.996-5.372,11.996-11.997V288.1
		c0-6.611-5.379-11.997-11.996-11.997H35.99z"/>
	<path d="M189.614,272.503c-2.099,0-4.218-0.554-6.147-1.708c-5.686-3.396-7.538-10.765-4.134-16.45L290.42,68.701
		c3.404-5.692,10.778-7.531,16.457-4.134c5.686,3.403,7.537,10.771,4.134,16.45L199.916,266.661
		C197.667,270.424,193.689,272.503,189.614,272.503z"/>
	<path d="M462.392,272.503c-4.081,0-8.052-2.079-10.308-5.842L342.02,82.732c-3.396-5.686-1.552-13.047,4.134-16.45
		c5.686-3.397,13.053-1.558,16.456,4.134l110.064,183.929c3.396,5.686,1.552,13.054-4.134,16.45
		C466.61,271.949,464.484,272.503,462.392,272.503z"/>
	<path d="M326,94.005c-25.924,0-47.009-21.086-47.009-47.003S300.076,0,326,0c25.917,0,47.003,21.085,47.003,47.002
		S351.917,94.005,326,94.005z M326,23.98c-12.688,0-23.016,10.321-23.016,23.016S313.312,70.012,326,70.012
		s23.009-10.321,23.009-23.016S338.688,23.98,326,23.98z"/>
	<g>
		<path d="M232.073,379.888c0,19.678-3.515,34.55-10.543,44.609c-7.028,10.074-17.239,15.101-30.618,15.101
			c-13.438,0-23.732-5.021-30.872-15.055s-10.713-24.919-10.713-44.662c0-19.572,3.541-34.393,10.628-44.492
			c7.081-10.093,17.376-15.14,30.866-15.14c13.326,0,23.53,5.021,30.617,15.062C228.532,345.352,232.073,360.197,232.073,379.888z
			 M212.083,379.934c0-13.686-1.591-24.443-4.767-32.294c-3.175-7.85-8.73-11.781-16.658-11.781c-7.929,0-13.464,3.938-16.613,11.82
			c-3.149,7.87-4.721,18.628-4.721,32.248c0,13.393,1.545,24.085,4.636,32.072c3.091,8,8.743,11.996,16.952,11.996
			c7.707,0,13.157-3.873,16.365-11.599C210.479,404.657,212.083,393.827,212.083,379.934z"/>
		<path d="M250.29,322.361h28.512c9.108,0,16.502,0.854,22.181,2.576c5.68,1.715,10.459,5.509,14.338,11.384
			c3.879,5.868,5.822,12.948,5.822,21.209c0,7.596-1.578,14.116-4.727,19.566c-3.149,5.458-7.381,9.39-12.695,11.814
			c-5.313,2.413-13.482,3.625-24.502,3.625h-9.864v44.956H250.29V322.361z M269.354,337.123v40.144h9.447
			c8.431,0,14.266-1.571,17.5-4.727c3.233-3.149,4.851-8.268,4.851-15.349c0-5.287-1.069-9.571-3.208-12.863
			c-2.139-3.286-4.485-5.308-7.042-6.077c-2.562-0.75-6.592-1.135-12.101-1.135h-9.447V337.123z"/>
		<path d="M335.649,322.361h65.95v15.264h-46.893v32.894h36.779v15.348h-36.779v36.011h47.655v15.602h-66.713V322.361z"/>
		<path d="M414.509,322.361h22.448l37.855,82.993v-82.993h15.941v115.117h-17.793l-42.511-92.186v92.186h-15.941V322.361z"/>
	</g>
</g>
</svg>
