<?xml version="1.0" encoding="utf-8"?>
<!-- Generator: Adobe Illustrator 15.1.0, SVG Export Plug-In . SVG Version: 6.00 Build 0)  -->
<!DOCTYPE svg PUBLIC "-//W3C//DTD SVG 1.1//EN" "http://www.w3.org/Graphics/SVG/1.1/DTD/svg11.dtd">
<svg version="1.1" id="Layer_1" xmlns="http://www.w3.org/2000/svg" xmlns:xlink="http://www.w3.org/1999/xlink" x="0px" y="0px"
	 width="652px" height="506.415px" viewBox="0 0 652 506.415" enable-background="new 0 0 652 506.415" xml:space="preserve">
<g>
	<path d="M616.01,506.415H35.99c-19.84,0-35.99-16.137-35.99-35.99V288.1c0-19.841,16.144-35.991,35.99-35.991h580.02
		c19.847,0,35.99,16.15,35.99,35.991v182.331C652,490.278,635.856,506.415,616.01,506.415z"/>
	<path d="M189.614,272.503c-2.099,0-4.218-0.554-6.147-1.708c-5.686-3.396-7.538-10.765-4.134-16.45L290.42,68.701
		c3.404-5.692,10.778-7.531,16.457-4.134c5.686,3.403,7.537,10.771,4.134,16.45L199.916,266.661
		C197.667,270.424,193.689,272.503,189.614,272.503z"/>
	<path d="M462.392,272.503c-4.081,0-8.052-2.079-10.308-5.842L342.02,82.732c-3.396-5.686-1.552-13.047,4.134-16.45
		c5.686-3.397,13.053-1.558,16.456,4.134l110.064,183.929c3.396,5.686,1.552,13.054-4.134,16.45
		C466.61,271.949,464.484,272.503,462.392,272.503z"/>
	<path d="M326,94.005c-25.924,0-47.009-21.086-47.009-47.003S300.076,0,326,0c25.917,0,47.003,21.085,47.003,47.002
		S351.917,94.005,326,94.005z"/>
</g>
</svg>
