<?xml version="1.0" encoding="utf-8"?>
<!-- Generator: Adobe Illustrator 15.1.0, SVG Export Plug-In . SVG Version: 6.00 Build 0)  -->
<!DOCTYPE svg PUBLIC "-//W3C//DTD SVG 1.1//EN" "http://www.w3.org/Graphics/SVG/1.1/DTD/svg11.dtd">
<svg version="1.1" id="Layer_1" xmlns="http://www.w3.org/2000/svg" xmlns:xlink="http://www.w3.org/1999/xlink" x="0px" y="0px"
	 width="437.117px" height="578.455px" viewBox="0 0 437.117 578.455" enable-background="new 0 0 437.117 578.455"
	 xml:space="preserve">
<title>94all</title>
<path d="M436.779,209.227C428.955,91.932,333.111,0,218.555,0S8.154,91.932,0.33,209.227c-2.91,53.903,13.504,107.077,46.292,149.96
	l158.893,212.747c5.401,7.203,15.618,8.662,22.82,3.26c1.235-0.926,2.333-2.023,3.26-3.26l158.893-212.617
	C423.31,316.402,439.727,263.175,436.779,209.227z M364.342,339.626L218.555,534.9L72.768,339.822
	c-28.164-36.676-42.313-82.199-39.902-128.378c5.868-87.89,76.936-178.778,185.689-178.778s179.821,90.824,185.689,178.713
	c2.427,46.201-11.724,91.75-39.902,128.443V339.626z"/>
<path d="M218.555,118.012c-50.412-0.252-91.483,40.411-91.735,90.823c-0.252,50.412,40.411,91.483,90.822,91.735
	c50.412,0.252,91.483-40.411,91.735-90.823c0.001-0.152,0.001-0.303,0.001-0.455C309.379,159.057,268.789,118.263,218.555,118.012z
	 M218.555,267.972c-32.407,0.252-58.883-25.814-59.135-58.222s25.814-58.882,58.222-59.135
	c32.407-0.252,58.883,25.815,59.135,58.222c0.001,0.151,0.002,0.303,0.002,0.455c0.037,32.256-25.969,58.494-58.224,58.745V267.972z
	"/>
</svg>
