<?xml version="1.0" encoding="utf-8"?>
<!-- Generator: Adobe Illustrator 15.1.0, SVG Export Plug-In . SVG Version: 6.00 Build 0)  -->
<!DOCTYPE svg PUBLIC "-//W3C//DTD SVG 1.1//EN" "http://www.w3.org/Graphics/SVG/1.1/DTD/svg11.dtd">
<svg version="1.1" id="Layer_1" xmlns="http://www.w3.org/2000/svg" xmlns:xlink="http://www.w3.org/1999/xlink" x="0px" y="0px"
	 width="36px" height="36px" viewBox="0 0 36 36" enable-background="new 0 0 36 36" xml:space="preserve">
<g>
	<path d="M12.018,9.413C12.018,2.27,7.875,0,7.875,0v8.278H0c0,2.138,2.602,3.754,3.88,4.419
		c-0.252,5.049-0.917,18.582-0.917,20.695c0,0,0,0.006,0,0.015C2.965,33.856,2.963,36,6.008,36c3.046,0,3.044-2.144,3.046-2.593
		c0-0.009,0-0.015,0-0.015c0-2.068-0.637-15.076-0.9-20.362L12.018,9.413z M6.009,33.867c-1.047,0-1.895-0.85-1.895-1.896
		s0.848-1.895,1.895-1.896c1.047,0.001,1.895,0.849,1.895,1.896S7.056,33.867,6.009,33.867z M4.471,7.527H0C0,3.178,4.471,0,4.471,0
		V7.527z M20.364,33.033h6.548L26.201,36h-5.125L20.364,33.033z M36,9.597l-0.779,0.806c0,0-4.172-6.147-7.371-5.924
		c0,0-0.861,0.167-0.973,1.724c-0.111,1.558-0.168,2.058-0.168,2.058s-0.139,0.667-0.917,0.667c-0.12,0-0.298,0-0.512,0v7.542h0.921
		l0.712,16.079h-6.549l0.712-16.079h1.035V8.928c-0.186,0-0.297,0-0.297,0s-0.834,0-0.834-0.946c0-0.945-0.557-3.282-1.836-3.365
		s-2.559-0.028-3.31,0.918c0,0-0.25,0.25-0.5,0.25h-1.642c0,0-0.754,0.055-0.754-0.445s0.003-4.172,0.003-4.172
		S12.858,0.64,13.525,0.64h1.558c0,0,0.278-0.055,0.556,0.264c0.278,0.32,1.78,1.238,3.338,0.264c0,0,0.974-1.196,2.419-1.168
		c1.447,0.029,4.534,0.325,6.092,0.803C29.047,1.28,33.413,4.618,36,9.597z"/>
</g>
</svg>
