<?xml version="1.0" encoding="utf-8"?>
<!-- Generator: Adobe Illustrator 15.1.0, SVG Export Plug-In . SVG Version: 6.00 Build 0)  -->
<!DOCTYPE svg PUBLIC "-//W3C//DTD SVG 1.1//EN" "http://www.w3.org/Graphics/SVG/1.1/DTD/svg11.dtd">
<svg version="1.1"
	 id="Layer_1" xmlns:inkscape="http://www.inkscape.org/namespaces/inkscape" xmlns:dc="http://purl.org/dc/elements/1.1/" xmlns:rdf="http://www.w3.org/1999/02/22-rdf-syntax-ns#" xmlns:sodipodi="http://sodipodi.sourceforge.net/DTD/sodipodi-0.dtd" xmlns:cc="http://creativecommons.org/ns#" xmlns:svg="http://www.w3.org/2000/svg"
	 xmlns="http://www.w3.org/2000/svg" xmlns:xlink="http://www.w3.org/1999/xlink" x="0px" y="0px" width="1072.027px"
	 height="652px" viewBox="0 0 1072.027 652" enable-background="new 0 0 1072.027 652" xml:space="preserve">
<g transform="translate(-175.24693,-478.81771)">
	<path d="M176.643,842.158c-3.253,6.697-0.672,14.879,6.176,18.133l94.593,45.801c7.944,3.825,16.622,5.805,25.238,5.805
		c6.41,0,12.847-0.977,19.067-3.176c14.55-5.071,26.204-15.472,32.905-29.351l133.664-276.304
		c6.696-13.879,7.403-29.475,2.436-44.119c-5.071-14.549-15.474-26.389-29.352-33.089l-94.597-45.615
		c-3.251-1.534-7.024-1.896-10.467-0.758l-0.007,0.002c-3.353,1.146-6.04,3.766-7.667,6.916 M1063.323,487.522l-114.598,55.335
		c-11.869,5.746-20.742,15.695-25.049,28.042c-4.307,12.347-3.505,25.803,2.241,37.575l141.142,291.821
		c8.426,17.517,25.836,27.854,44.12,27.854c7.177,0,14.418-1.609,21.311-4.86l114.784-55.522L1063.32,487.522H1063.323z
		 M525.11,619.505c-5.172,0-9.949,2.974-12.151,7.666L378.171,905.906c-1.533,3.252-1.712,7.025-0.591,10.47
		c1.148,3.445,3.766,6.217,6.918,7.851l68.423,32.715c1.816,0.859,3.697,1.314,5.609,1.314c-0.244,2.393-0.76,4.802-0.76,7.296
		c0,28.044,22.896,51.035,51.036,51.035c5.645,0,11.282-1.078,16.453-2.982c6.602,20.579,25.918,35.707,48.604,35.707
		c5.645,0,11.005-0.985,16.077-2.806c6.411,20.866,25.82,36.268,48.794,36.268c7.082,0,13.878-1.617,20.001-4.296
		c7.179,19.621,26.033,33.65,48.048,33.65c14.355,0,27.354-6.133,36.639-15.704c1.248,1.433,2.579,2.881,4.489,3.74l53.279,25.237
		c7.177,3.64,14.962,5.417,22.811,5.417c5.643,0,11.458-0.859,17.013-2.806c13.302-4.591,23.88-14.193,29.908-26.732
		c6.225-12.635,7.026-26.797,2.436-40.006c-0.247-0.758-0.592-1.474-0.959-2.24c13.588-4.019,25.543-13.698,32.339-27.481
		c6.605-13.688,6.673-28.758,1.12-42.062c5.746-1.727,11.378-4.405,16.454-8.037c5.642-4.119,9.734-9.217,13.084-14.768
		l86.929-41.314c3.253-1.533,5.68-4.305,6.918-7.852c1.245-3.353,0.968-7.118-0.589-10.281L908.633,659.722
		c-2.105-4.406-6.419-7.379-11.405-7.666l-215.546-12.525c-9.571-0.59-18.584,1.508-27.295,4.675
		c-0.758-0.859-1.475-1.854-2.434-2.435c-32.544-21.631-117.363-22.247-126.934-22.247L525.11,619.505z"/>
</g>
</svg>
