<?xml version="1.0" encoding="utf-8"?>
<!-- Generator: Adobe Illustrator 15.1.0, SVG Export Plug-In . SVG Version: 6.00 Build 0)  -->
<!DOCTYPE svg PUBLIC "-//W3C//DTD SVG 1.1//EN" "http://www.w3.org/Graphics/SVG/1.1/DTD/svg11.dtd">
<svg version="1.1"
	 id="Layer_1" xmlns:inkscape="http://www.inkscape.org/namespaces/inkscape" xmlns:dc="http://purl.org/dc/elements/1.1/" xmlns:rdf="http://www.w3.org/1999/02/22-rdf-syntax-ns#" xmlns:sodipodi="http://sodipodi.sourceforge.net/DTD/sodipodi-0.dtd" xmlns:cc="http://creativecommons.org/ns#" xmlns:svg="http://www.w3.org/2000/svg"
	 xmlns="http://www.w3.org/2000/svg" xmlns:xlink="http://www.w3.org/1999/xlink" x="0px" y="0px" width="1072.027px"
	 height="652px" viewBox="0 0 1072.027 652" enable-background="new 0 0 1072.027 652" xml:space="preserve">
<g transform="translate(-175.24693,-478.81771)">
	<path d="M356.3,479.486c-3.353,1.146-6.04,3.766-7.667,6.916l-171.99,355.756c-3.253,6.697-0.672,14.879,6.176,18.133
		l94.593,45.801c7.944,3.825,16.622,5.805,25.238,5.805c6.41,0,12.847-0.977,19.067-3.176c14.55-5.071,26.204-15.472,32.905-29.351
		l133.664-276.304c6.696-13.879,7.403-29.475,2.436-44.119c-5.071-14.549-15.474-26.389-29.352-33.089l-94.597-45.615
		c-3.251-1.534-7.024-1.896-10.467-0.758L356.3,479.486z M1063.323,487.522l-114.598,55.335
		c-11.869,5.746-20.742,15.695-25.049,28.042c-4.307,12.347-3.505,25.803,2.241,37.575l141.142,291.821
		c8.426,17.517,25.836,27.854,44.12,27.854c7.177,0,14.418-1.609,21.311-4.86l114.784-55.522L1063.32,487.522H1063.323z
		 M366.956,510.516l82.441,39.819c7.37,3.64,13.024,9.916,15.702,17.573c2.678,7.852,2.234,16.094-1.314,23.368L330.12,867.394
		c-3.637,7.372-9.728,13.023-17.382,15.703c-7.752,2.68-16.088,2.047-23.556-1.491l-82.441-39.818l160.209-331.266L366.956,510.516z
		 M1050.8,523.789l160.211,331.266l-90.293,43.745c-10.818,5.266-24.086,0.675-29.352-10.281L950.41,596.697
		c-2.588-5.265-3.034-11.086-1.121-16.638c1.913-5.551,5.955-10.127,11.216-12.712L1050.8,523.789z M525.11,619.505
		c-5.172,0-9.949,2.974-12.151,7.666L378.171,905.906c-1.533,3.252-1.712,7.025-0.591,10.47c1.148,3.445,3.766,6.217,6.918,7.851
		l68.423,32.715c1.816,0.859,3.697,1.314,5.609,1.314c-0.244,2.393-0.76,4.802-0.76,7.296c0,28.044,22.896,51.035,51.036,51.035
		c5.645,0,11.282-1.078,16.453-2.982c6.602,20.579,25.918,35.707,48.604,35.707c5.645,0,11.005-0.985,16.077-2.806
		c6.411,20.866,25.82,36.268,48.794,36.268c7.082,0,13.878-1.617,20.001-4.296c7.179,19.621,26.033,33.65,48.048,33.65
		c14.355,0,27.354-6.133,36.639-15.704c1.248,1.433,2.579,2.881,4.489,3.74l53.279,25.237c7.177,3.64,14.962,5.417,22.811,5.417
		c5.643,0,11.458-0.859,17.013-2.806c13.302-4.591,23.88-14.193,29.908-26.732c6.225-12.635,7.026-26.797,2.436-40.006
		c-0.247-0.758-0.592-1.474-0.959-2.24c13.588-4.019,25.543-13.698,32.339-27.481c6.605-13.688,6.673-28.758,1.12-42.062
		c5.746-1.727,11.378-4.405,16.454-8.037c5.642-4.119,9.734-9.217,13.084-14.768l86.929-41.314c3.253-1.533,5.68-4.305,6.918-7.852
		c1.245-3.353,0.968-7.118-0.589-10.281L908.633,659.722c-2.105-4.406-6.419-7.379-11.405-7.666l-215.546-12.525
		c-9.571-0.59-18.584,1.508-27.295,4.675c-0.758-0.859-1.475-1.854-2.434-2.435c-32.544-21.631-117.363-22.247-126.934-22.247
		L525.11,619.505z M533.333,646.425c24.023,0.589,67.751,3.53,92.35,12.339l-9.162,17.951c-0.504,0.96-0.857,1.945-1.12,2.982
		l-31.031,58.326c-8.14,16.271-9.57,34.382-4.12,51.036c5.553,17.421,17.376,31.497,33.651,39.633
		c32.829,16.176,71.76,3.563,88.796-28.79l26.732-52.718l206.39,99.454c12.156,5.838,17.332,21.398,11.59,33.65
		c-5.552,11.868-19.156,17.211-31.407,12.711c-0.093,0-0.162-0.085-0.423-0.169c-0.421-0.168-0.756-0.251-1.118-0.421
		l-44.308-16.639c-3.535-1.247-7.495-1.154-10.841,0.59c-3.445,1.728-5.871,4.685-6.926,8.223l-1.12,3.555
		c-1.052,3.445-0.589,7.118,1.12,10.282c1.729,3.159,4.592,5.594,8.039,6.546l43.369,12.525
		c11.297,6.512,15.564,20.746,9.533,32.902c-1.626,3.639-3.943,6.588-7.294,8.968c-7.28,5.266-16.315,6.268-26.172,2.057
		l-45.054-17.014c-3.447-1.339-7.307-1.162-10.656,0.422c-3.353,1.533-5.959,4.498-7.104,8.036l-0.958,2.999
		c-1.146,3.445-0.862,7.396,0.755,10.655c1.627,3.252,4.499,5.678,8.039,6.731l43.185,12.711l0.758,0.168
		c12.059,6.513,16.964,21.121,11.028,33.277c-6.123,12.538-21.275,17.915-34.77,11.216l-45.99-17.386
		c-3.537-1.247-7.497-1.154-10.843,0.59c-3.445,1.727-5.862,4.776-6.925,8.415l-1.121,3.37c-1.051,3.445-0.587,7.118,1.121,10.281
		c1.726,3.159,4.591,5.586,8.036,6.546l44.869,13.086c6.125,2.966,10.697,8.079,12.897,14.395
		c2.199,6.318,1.754,13.221-1.312,19.443c-2.874,6.031-7.889,10.51-14.208,12.711c-6.319,2.199-12.849,1.753-19.071-1.314
		l-53.277-25.237c-1.247-0.589-2.588-0.758-3.926-0.96c1.246-4.305,2.055-8.959,2.055-13.646c0-28.142-22.894-51.036-51.034-51.036
		c-6.984,0-13.877,1.432-20.005,4.119c-7.176-19.621-26.03-33.65-48.043-33.65c-5.643,0-11.006,0.985-16.077,2.806
		c-6.319-20.962-25.821-36.08-48.793-36.08c-5.645,0-11.282,0.859-16.453,2.806c-6.511-20.579-25.825-35.707-48.603-35.707
		c-16.655,0-31.283,8.307-40.569,20.75c-1.054-0.96-2.207-2.039-3.545-2.611l-56.084-26.92L533.25,646.47L533.333,646.425z
		 M680.085,666.615l207.692,11.965l75.153,155.164c-4.214-4.498-9.305-8.348-15.141-11.216l-218.356-105.25
		c-6.601-3.159-14.596-0.506-17.943,5.981l-32.902,64.497c-10.049,19.047-33.102,26.396-52.531,16.825
		c-9.57-4.785-16.654-13.123-20.003-23.556c-3.251-9.954-2.165-20.997,2.611-30.472l32.343-60.756
		c0.421-0.421,0.587-1.011,0.756-1.491c0.093-0.169,0.247-0.169,0.421-0.421c7.271-13.879,22.253-22.173,37.948-21.312
		L680.085,666.615z M976.577,861.972l21.5,44.493l-55.151,26.359c-0.589-4.499-1.455-8.873-3.175-13.086
		c13.69-4.019,25.644-13.698,32.342-27.481c4.591-9.764,6.023-20.33,4.489-30.285H976.577z M508.844,941.611
		c13.112,0,23.738,10.816,23.738,23.93c0,1.819-0.856,4.136-1.685,7.101c-0.42,1.146-0.589,2.309-0.589,3.556
		c-1.054,0.758-1.853,1.659-2.62,2.805c-2.771,3.833-8.931,10.282-18.882,10.282c-13.112,0-23.929-10.628-23.929-23.741
		s10.816-23.929,23.929-23.929L508.844,941.611z M573.713,974.139c13.112,0,23.929,10.815,23.929,23.929
		c0,2.106-0.59,4.499-1.685,7.852c-0.247,0.961-0.675,1.946-0.758,2.806c-0.862,0.758-1.671,1.659-2.436,2.611
		c-2.771,4.019-9.016,10.655-19.069,10.655c-13.207,0-23.928-10.72-23.928-23.928c0-1.913,0.859-4.137,1.684-7.103
		c0.421-1.146,0.675-2.308,0.758-3.546c1.054-0.759,1.855-1.753,2.613-2.806c2.771-3.926,8.931-10.47,18.88-10.47L573.713,974.139z
		 M638.769,1007.603c13.207,0,23.928,10.815,23.928,23.928c0,2.393-0.675,4.971-1.869,8.223c-0.069,0.251-0.069,0.674-0.161,0.96
		c-0.245,0.421-0.59,0.859-0.761,1.313c-4.117,8.23-12.221,13.46-21.123,13.46c-13.112,0-23.931-10.72-23.931-23.929
		c0-2.014,0.675-4.499,1.874-7.852c0.245-0.961,0.504-1.845,0.587-2.806c0.961-0.758,1.947-1.845,2.613-2.805
		c2.771-3.926,8.833-10.47,18.88-10.47L638.769,1007.603z M706.818,1037.139c13.207,0,23.741,10.63,23.741,23.742
		c0,13.113-10.722,23.93-23.931,23.93c-13.112,0-23.739-10.816-23.739-23.93c0-2.3,0.673-4.785,1.869-8.036
		c0.069-0.254,0.069-0.675,0.162-0.961c0.245-0.421,0.504-0.859,0.758-1.313c4.119-8.231,12.225-13.46,21.125-13.46
		L706.818,1037.139z"/>
</g>
</svg>
