<?xml version="1.0" encoding="utf-8"?>
<!-- Generator: Adobe Illustrator 15.1.0, SVG Export Plug-In . SVG Version: 6.00 Build 0)  -->
<!DOCTYPE svg PUBLIC "-//W3C//DTD SVG 1.1//EN" "http://www.w3.org/Graphics/SVG/1.1/DTD/svg11.dtd">
<svg version="1.1" id="Layer_1" xmlns="http://www.w3.org/2000/svg" xmlns:xlink="http://www.w3.org/1999/xlink" x="0px" y="0px"
	 width="641.65px" height="516.684px" viewBox="0 0 641.65 516.684" enable-background="new 0 0 641.65 516.684"
	 xml:space="preserve">
<g>
	<path d="M550.577,20.957c-151.098-27.943-308.406-27.943-459.504,0C38.292,30.271,0,76.843,0,130.659v45.537
		c0,17.593,13.454,31.047,31.048,31.047h72.444c17.594,0,31.047-13.454,31.047-31.047v-25.873c0-7.245,5.175-14.489,12.419-16.559
		c3.105-1.035,5.175-1.035,8.28-2.07v31.048L62.095,421.471v84.863h41.397v10.35h20.698v-10.35h393.27v10.35h20.698v-10.35h41.397
		v-84.863l-93.144-258.729v-31.048c3.105,1.035,5.175,1.035,8.28,2.07c7.244,2.07,12.418,8.279,12.418,16.559v25.873
		c0,17.594,13.455,31.048,31.048,31.048h72.444c17.594,0,31.048-13.454,31.048-31.048v-45.536
		C641.65,76.843,603.358,30.271,550.577,20.957z M103.492,186.544H31.048c-6.21,0-10.35-4.14-10.35-10.349v-10.35h93.143v10.35
		C113.841,181.37,109.701,186.544,103.492,186.544z M217.333,121.344v34.152h-41.396v-26.908
		C189.391,125.484,203.879,123.414,217.333,121.344z M403.619,119.274v36.222H238.031v-36.222
		C292.882,113.065,348.769,113.065,403.619,119.274z M558.856,486.672H82.794v-60.025l90.037-250.451h295.988l90.037,250.451
		V486.672z M465.714,155.497h-41.396v-34.152c13.454,2.07,27.942,4.14,41.396,7.245V155.497z M498.831,114.1
		c-57.955-13.454-117.98-20.699-178.006-20.699s-120.051,7.245-178.006,20.699c-15.524,3.104-25.873,15.523-27.943,31.047H21.733
		v-14.489c0-43.467,31.047-80.724,74.514-89.003c146.959-26.908,302.197-26.908,450.19,0c43.467,8.28,74.515,45.537,74.515,89.003
		v14.489H527.81C524.704,129.624,514.355,118.24,498.831,114.1z M610.603,186.544h-72.444c-6.209,0-10.349-4.14-10.349-10.349
		v-10.35h93.143v10.35C620.952,181.37,616.812,186.544,610.603,186.544z"/>
	<path d="M320.825,196.894c-63.13,0-113.842,50.711-113.842,113.841s50.712,113.841,113.842,113.841s113.842-50.711,113.842-113.841
		S383.955,196.894,320.825,196.894z M320.825,403.877c-51.746,0-93.143-41.396-93.143-93.143s41.396-93.143,93.143-93.143
		s93.143,41.397,93.143,93.143S372.571,403.877,320.825,403.877z"/>
	<path d="M320.825,248.639c-34.152,0-62.096,27.943-62.096,62.096s27.943,62.095,62.096,62.095s62.096-27.942,62.096-62.095
		S354.978,248.639,320.825,248.639z M320.825,352.131c-22.769,0-41.396-18.628-41.396-41.396s18.628-41.396,41.396-41.396
		s41.396,18.628,41.396,41.396S343.594,352.131,320.825,352.131z"/>
	<rect x="310.476" y="445.275" width="20.699" height="20.697"/>
	<rect x="269.079" y="445.275" width="20.698" height="20.697"/>
	<rect x="351.873" y="445.275" width="20.698" height="20.697"/>
</g>
</svg>
