<?xml version="1.0" encoding="utf-8"?>
<!-- Generator: Adobe Illustrator 15.1.0, SVG Export Plug-In . SVG Version: 6.00 Build 0)  -->
<!DOCTYPE svg PUBLIC "-//W3C//DTD SVG 1.1//EN" "http://www.w3.org/Graphics/SVG/1.1/DTD/svg11.dtd">
<svg version="1.1" id="logos" xmlns="http://www.w3.org/2000/svg" xmlns:xlink="http://www.w3.org/1999/xlink" x="0px" y="0px"
	 width="90px" height="90px" viewBox="0 0 90 90" enable-background="new 0 0 90 90" xml:space="preserve">
<g>
	<path fill-rule="evenodd" clip-rule="evenodd" fill="#090708" d="M29.399,43.354l10.449,5.096c2.01,0.98,1.699,3.937-0.47,4.478
		l-11.28,2.812c-1.407,0.351-2.796-0.62-2.962-2.061c-0.355-3.081-0.004-6.124,0.942-8.941
		C26.538,43.369,28.102,42.721,29.399,43.354z"/>
	<path fill-rule="evenodd" clip-rule="evenodd" fill="#090708" d="M33.583,64.864l7.777-8.639c1.497-1.662,4.252-0.549,4.174,1.687
		l-0.405,11.621c-0.051,1.448-1.366,2.521-2.795,2.28c-3.005-0.505-5.848-1.666-8.329-3.371
		C32.812,67.623,32.614,65.939,33.583,64.864z"/>
	<path fill-rule="evenodd" clip-rule="evenodd" fill="#090708" d="M52.023,53.368l11.055,3.593c1.376,0.447,2.047,2.005,1.424,3.311
		c-1.297,2.717-3.178,5.144-5.528,7.083c-1.118,0.923-2.792,0.651-3.561-0.577l-6.162-9.861
		C48.066,55.02,49.896,52.678,52.023,53.368z"/>
	<path fill-rule="evenodd" clip-rule="evenodd" fill="#090708" d="M63.265,46.316L52.09,49.521
		c-2.149,0.616-3.896-1.788-2.646-3.643l6.501-9.638c0.808-1.196,2.485-1.417,3.568-0.462c2.229,1.967,4.054,4.427,5.287,7.272
		C65.376,44.381,64.659,45.917,63.265,46.316z"/>
	<path fill-rule="evenodd" clip-rule="evenodd" fill="#090708" d="M37.153,19.2c-2.011,0.539-3.93,1.251-5.745,2.116
		c-1.259,0.6-1.734,2.15-1.037,3.358l10.922,18.918c1.225,2.122,4.47,1.253,4.47-1.198V20.551c0-1.395-1.188-2.5-2.578-2.391
		C41.182,18.318,39.164,18.661,37.153,19.2z"/>
</g>
</svg>
